<svg width="321" height="273" viewBox="0 0 321 273" fill="none" xmlns="http://www.w3.org/2000/svg">
<path d="M276.501 43.2901C284.901 66.4901 285.001 89.2901 284.001 97.7901L194.001 69.2901C196.334 58.4568 204.301 32.8901 217.501 17.2901C234.001 -2.20989 240.001 -0.209893 247.001 1.29011C254.001 2.79011 266.001 14.2901 276.501 43.2901Z" fill="#4177FF"/>
<path d="M40.0009 42.8951C31.6009 66.0951 31.5009 88.8951 32.5009 97.3951L122.501 68.8951C120.168 58.0617 112.201 32.4951 99.0009 16.8951C82.5009 -2.60494 76.5009 -0.604943 69.5009 0.895057C62.5009 2.39506 50.5009 13.8951 40.0009 42.8951Z" fill="#4177FF"/>
<g filter="url(#filter0_d_14_714)">
<path d="M160.251 264.395C33.2959 264.395 1.50442 218.975 11.8035 153.15C24.8969 69.4657 78.7916 37.3951 160.501 37.3951C242.21 37.3951 296.105 69.4657 309.198 153.15C319.497 218.975 287.206 264.395 160.251 264.395Z" fill="#FF8400"/>
</g>
<circle cx="83.5009" cy="137.895" r="45.5" fill="white"/>
<circle cx="45.5" cy="45.5" r="45.5" transform="matrix(-1 0 0 1 278.001 92.3951)" fill="white"/>
<path d="M243.501 116.395L210.001 135.736" stroke="black" stroke-width="15" stroke-linecap="round"/>
<path d="M243.501 155.736L210.001 136.395" stroke="black" stroke-width="15" stroke-linecap="round"/>
<path d="M71.0009 116.395L104.501 135.736" stroke="black" stroke-width="15" stroke-linecap="round"/>
<path d="M71.0009 155.736L104.501 136.395" stroke="black" stroke-width="15" stroke-linecap="round"/>
<path d="M159.001 200.895C152.001 200.895 146.501 176.395 146.501 176.395L154.001 170.895L158.501 163.895L163.001 170.895L170.001 176.395C170.001 176.395 166.001 200.895 159.001 200.895Z" fill="#A00009" stroke="#A00009"/>
<path d="M137.501 167.895C141.001 171.228 147.284 176.46 151.001 174.395C155.501 171.895 158.001 163.895 159.001 160.395C160.168 164.728 162.401 172.795 166.001 174.395C169.601 175.995 176.501 171.062 179.001 167.895" stroke="black" stroke-width="7" stroke-linecap="round"/>
<path d="M3.50088 153.895C9.00088 155.395 20.8009 158.595 24.0009 159.395" stroke="black" stroke-width="7" stroke-linecap="round"/>
<path d="M24.0009 171.895L5.00088 176.986" stroke="black" stroke-width="7" stroke-linecap="round"/>
<path d="M317.501 154.395C312.001 155.895 300.201 159.095 297.001 159.895" stroke="black" stroke-width="7" stroke-linecap="round"/>
<path d="M297.001 172.395L316.001 177.486" stroke="black" stroke-width="7" stroke-linecap="round"/>
<path d="M157.269 158.395C158.039 159.728 159.963 159.728 160.733 158.395L166.795 147.895C167.565 146.562 166.603 144.895 165.063 144.895H152.939C151.399 144.895 150.437 146.562 151.207 147.895L157.269 158.395Z" fill="black"/>
<defs>
<filter id="filter0_d_14_714" x="6.00088" y="37.3951" width="308.982" height="235" filterUnits="userSpaceOnUse" color-interpolation-filters="sRGB">
<feFlood flood-opacity="0" result="BackgroundImageFix"/>
<feColorMatrix in="SourceAlpha" type="matrix" values="0 0 0 0 0 0 0 0 0 0 0 0 0 0 0 0 0 0 127 0" result="hardAlpha"/>
<feOffset dy="4"/>
<feGaussianBlur stdDeviation="2"/>
<feComposite in2="hardAlpha" operator="out"/>
<feColorMatrix type="matrix" values="0 0 0 0 0 0 0 0 0 0 0 0 0 0 0 0 0 0 0.25 0"/>
<feBlend mode="normal" in2="BackgroundImageFix" result="effect1_dropShadow_14_714"/>
<feBlend mode="normal" in="SourceGraphic" in2="effect1_dropShadow_14_714" result="shape"/>
</filter>
</defs>
</svg>
