<svg width="958" height="741" viewBox="0 0 958 741" fill="none" xmlns="http://www.w3.org/2000/svg">
<ellipse cx="513" cy="718.241" rx="181" ry="22.5" fill="#D9D9D9"/>
<path d="M364.371 667.817C367.515 651.917 387.719 572.825 397.427 535.266L478.662 566.401C476.142 574.627 468.656 601.91 458.872 645.225C446.642 699.37 427.56 717.948 419.445 723.11C411.33 728.272 386.868 729.723 373.334 717.261C359.799 704.798 360.44 687.693 364.371 667.817Z" fill="#FF8400"/>
<path d="M666.319 667.539C663.095 651.654 642.499 572.663 632.604 535.154L551.524 566.691C554.085 574.905 561.707 602.15 571.706 645.417C584.205 699.5 603.379 717.983 611.52 723.104C619.661 728.226 644.129 729.556 657.602 717.026C671.074 704.496 670.349 687.395 666.319 667.539Z" fill="#FF8400"/>
<path d="M333.5 323.741C345.1 294.541 365.5 294.241 377.5 292.741L491.5 283.741H603C633.5 284.241 696.2 293.341 703 325.741C711.5 366.241 707 380.741 703 406.741C699.8 427.541 678.667 451.408 668.5 460.741C667 466.741 662.4 483.641 656 503.241C648 527.741 640 554.241 617 576.241C594 598.241 563.5 599.741 553 602.741C542.5 605.741 491.5 605.741 479.5 602.741C467.5 599.741 457.5 594.741 429 580.241C400.5 565.741 385 538.241 380 513.741C376 494.141 365.667 469.908 361 460.241C355.167 456.741 341.5 446.741 333.5 434.741C323.5 419.741 319 360.241 333.5 323.741Z" fill="#FF8400"/>
<path d="M427 442.241C427.833 446.241 430.7 455.841 435.5 462.241C441.5 470.241 450 470.741 463 467.741C473.4 465.341 491.333 458.741 499 455.741M448.5 483.241C451.667 489.241 461 501.041 473 500.241C485 499.441 498 496.574 503 495.241M458.5 521.241C461 526.741 468.4 537.741 478 537.741C487.6 537.741 502.667 534.074 509 532.241M372.5 387.741C377.667 398.908 395 422.241 423 426.241C458 431.241 478.5 421.241 489 410.741C497.4 402.341 502.5 395.574 504 393.241" stroke="#FFA630" stroke-width="11" stroke-linecap="round"/>
<path d="M603 442.241C602.167 446.241 599.3 455.841 594.5 462.241C588.5 470.241 580 470.741 567 467.741C556.6 465.341 538.667 458.741 531 455.741M581.5 483.241C578.333 489.241 569 501.041 557 500.241C545 499.441 532 496.574 527 495.241M571.5 521.241C569 526.741 561.6 537.741 552 537.741C542.4 537.741 527.333 534.074 521 532.241M657.5 387.741C652.333 398.908 635 422.241 607 426.241C572 431.241 551.5 421.241 541 410.741C532.6 402.341 527.5 395.574 526 393.241" stroke="#FFA730" stroke-width="11" stroke-linecap="round"/>
<path d="M514.5 407.241V531.741" stroke="#FFA630" stroke-width="11" stroke-linecap="round"/>
<path d="M292.402 268.584C328.402 260.084 353.235 272.751 366.902 279.084C390.902 309.084 388.402 314.584 386.902 343.584C385.702 366.784 351.402 394.584 334.402 405.584C331.902 408.251 320.402 415.784 294.402 424.584C268.402 433.384 248.902 428.251 242.402 424.584C237.902 428.917 223.602 439.384 202.402 446.584C181.202 453.784 147.902 452.251 133.902 450.584C126.402 456.084 106.502 468.484 86.9017 474.084C67.3017 479.684 54.0684 456.084 49.9017 443.584C45.5684 444.417 34.6017 446.184 25.4017 446.584C13.9017 447.084 3.90176 439.584 0.401755 424.584C-3.09824 409.584 15.9018 392.584 71.9018 368.584C116.702 349.384 193.068 319.751 225.402 313.584C232.735 304.251 255.698 277.25 292.402 268.584Z" fill="#FF8400"/>
<path d="M237 351.241C249 358.574 273.145 367.812 293.5 363.741C313.5 359.741 326 346.241 329 343.741" stroke="#FFA630" stroke-width="11" stroke-linecap="round"/>
<path d="M52 436.741C60.8333 433.574 78.5 426.741 81.5 430.741C83.4209 433.302 95.5 451.241 105.5 452.741C115.5 454.241 128 447.241 128 432.741C128 421.141 124.667 410.908 123.5 409.241" stroke="#FFA630" stroke-width="11" stroke-linecap="round"/>
<path d="M209 434.241C215.5 431.241 225.786 425.628 232 419.741C241.5 410.741 243.5 398.574 244.5 393.741" stroke="#FFA630" stroke-width="11" stroke-linecap="round"/>
<path d="M664.187 57.8415C675.41 88.8399 675.544 119.304 674.208 130.661L553.956 92.5811C557.073 78.1063 567.718 43.9457 585.355 23.102C607.401 -2.95272 615.418 -0.280447 624.771 1.72376C634.124 3.72796 650.157 19.0935 664.187 57.8415Z" fill="#4177FF"/>
<path d="M348.19 57.3137C336.967 88.3121 336.833 118.776 338.169 130.133L458.422 92.0532C455.304 77.5784 444.659 43.4179 427.022 22.5741C404.976 -3.48056 396.959 -0.808287 387.606 1.19592C378.253 3.20013 362.22 18.5657 348.19 57.3137Z" fill="#4177FF"/>
<g filter="url(#filter0_d_87_2)">
<path d="M508.861 353.268C339.232 353.268 296.754 292.581 310.515 204.629C328.01 92.8157 400.02 49.9649 509.195 49.9649C618.37 49.9649 690.381 92.8157 707.875 204.629C721.636 292.581 678.491 353.268 508.861 353.268Z" fill="#FF8400"/>
</g>
<circle cx="405.977" cy="191.249" r="60.7943" fill="white"/>
<circle cx="60.7943" cy="60.7943" r="60.7943" transform="matrix(-1 0 0 1 667.192 130.454)" fill="white"/>
<path d="M299.421 205.625C306.77 207.629 322.537 211.905 326.812 212.974" stroke="black" stroke-width="7" stroke-linecap="round"/>
<path d="M326.812 229.675L301.425 236.478" stroke="black" stroke-width="7" stroke-linecap="round"/>
<path d="M718.969 206.293C711.62 208.297 695.854 212.573 691.578 213.642" stroke="black" stroke-width="7" stroke-linecap="round"/>
<path d="M691.578 230.343L716.964 237.146" stroke="black" stroke-width="7" stroke-linecap="round"/>
<path d="M478.469 223.909C483.109 228.287 491.438 235.159 496.366 232.447C502.331 229.163 505.645 218.655 506.971 214.057C508.517 219.749 511.478 230.345 516.25 232.447C521.023 234.548 530.17 228.068 533.484 223.909" stroke="black" stroke-width="7" stroke-linecap="round"/>
<path d="M505.245 212.057C506.015 213.391 507.939 213.391 508.709 212.057L517.806 196.302C518.575 194.968 517.613 193.302 516.074 193.302H497.88C496.341 193.302 495.379 194.968 496.148 196.302L505.245 212.057Z" fill="black"/>
<circle cx="605.061" cy="193.242" r="50.1052" fill="black"/>
<circle cx="605.729" cy="171.196" r="26.7227" fill="white"/>
<circle cx="583.683" cy="203.931" r="8.68538" fill="white"/>
<mask id="mask0_87_2" style="mask-type:alpha" maskUnits="userSpaceOnUse" x="554" y="143" width="102" height="101">
<circle cx="605.061" cy="193.242" r="50.1052" fill="black"/>
</mask>
<g mask="url(#mask0_87_2)">
<path d="M613.746 226.645C613.746 247.355 609.858 258.044 605.061 258.044C600.265 258.044 596.376 244.683 596.376 226.645C596.376 221.849 600.265 217.96 605.061 217.96C609.858 217.96 613.746 221.849 613.746 226.645Z" fill="white"/>
</g>
<circle cx="407.313" cy="193.242" r="50.1052" fill="black"/>
<circle cx="407.981" cy="171.196" r="26.7227" fill="white"/>
<circle cx="385.935" cy="203.931" r="8.68538" fill="white"/>
<path d="M407.312 217.96C412.109 217.96 415.998 221.849 415.998 226.645C415.998 232.953 415.634 238.331 414.997 242.761C412.492 243.147 409.926 243.347 407.313 243.347C404.764 243.347 402.26 243.156 399.813 242.788C399.061 238.14 398.628 232.652 398.628 226.645C398.628 221.849 402.516 217.961 407.312 217.96Z" fill="white"/>
<path d="M681.362 437.467C679.362 426.967 685.862 414.967 695.362 409.967C699.862 408.134 710.863 404.167 718.863 402.967C728.863 401.467 773.363 407.467 786.863 419.967C800.363 432.467 793.863 451.967 793.863 454.967C793.863 457.367 783.529 464.3 778.363 467.467L783.363 473.467C784.696 478.134 785.563 488.667 778.363 493.467C769.363 499.467 740.863 501.967 724.363 497.967C707.863 493.967 692.363 484.967 687.363 473.467C683.363 464.267 689.029 457.3 692.363 454.967C689.362 452.634 682.962 445.867 681.362 437.467Z" fill="#FF8400" stroke="#FFA730" stroke-width="11"/>
<path d="M736.354 468.73C739.385 468.534 741.684 465.918 741.489 462.887C741.293 459.856 738.677 457.557 735.646 457.752L736 463.241L736.354 468.73ZM684.5 445.241L679.581 447.701C682.143 452.826 690.323 462.847 704.25 466.097L705.5 460.741L706.75 455.385C696.677 453.035 690.857 445.656 689.419 442.781L684.5 445.241ZM705.5 460.741L704.25 466.097C716.939 469.058 730.847 469.085 736.354 468.73L736 463.241L735.646 457.752C730.82 458.064 718.061 458.024 706.75 455.385L705.5 460.741Z" fill="#FFA730"/>
<g clip-path="url(#clip0_87_2)">
<path d="M781.434 453.391C777.916 452.026 776.076 450.596 777.058 449.885C777.888 449.283 790.979 453.384 790.844 454.231C790.583 455.859 786.962 455.546 781.434 453.391Z" fill="#090C0C"/>
<path d="M813.391 450.964C813.829 448.229 820.301 443.656 822.787 444.388L824.577 444.875L820.977 447.771C818.982 449.389 816.36 451.173 815.194 451.788L813.099 452.788L813.391 450.964Z" fill="#090C0C"/>
<path d="M779.118 444.938C773.401 441.885 770.83 439.603 767.68 434.69C763.13 427.682 761.657 420.633 762.615 410.901C763.004 407.223 763.787 402.339 764.433 399.972L765.653 395.692L767.93 396.057C769.557 396.317 770.655 396.961 771.509 398.3C773.116 400.762 774.587 400.329 777.782 396.633C779.084 395.172 780.529 394.068 780.984 394.141C781.375 394.203 781.838 393.81 781.922 393.289C782.277 391.075 784.617 389.38 786.895 389.744C788.912 390.068 789.076 390.294 788.794 392.053C788.429 394.332 786.267 396.991 784.966 396.783C784.445 396.699 783.992 397.027 783.909 397.548C783.825 398.069 782.625 400.148 781.153 402.25C779.758 404.297 778.205 407.321 777.749 408.918C775.977 414.979 776.214 414.75 772.245 414.114C768.015 413.436 767.802 413.937 769.072 419.751C770.164 424.601 773.004 430.199 776.332 434.005C779.55 437.66 787.266 443.238 789.608 443.613C790.975 443.832 791.118 444.189 790.805 446.143L790.44 448.422L787.056 447.88C785.169 447.578 781.585 446.202 779.118 444.938Z" fill="#090C0C"/>
<path d="M790.655 434.163C784.795 430.753 781.431 426.34 780.53 420.718C779.686 415.574 781.946 404.381 784.569 400.927C787.126 397.463 791.323 394.595 795.162 393.541C799.564 392.309 810.178 393.542 812.996 395.53C815.325 397.239 815.325 397.239 815.524 396.002C815.607 395.481 814.363 394.079 812.688 392.876C810.174 391.07 808.849 390.591 803.839 389.788L797.983 388.85L798.338 386.635C798.651 384.682 798.953 384.463 800.772 384.354C806.676 384.164 815.988 386.859 820.471 390.115C823.334 392.244 827.231 397.076 829.478 401.377C830.563 403.354 831.424 404.227 832.965 404.607C834.951 405.126 835.05 405.342 834.827 407.978C834.595 410.679 834.519 410.734 832.632 410.432C831.266 410.213 830.563 410.434 830.459 411.085C830.354 411.737 829.651 411.958 828.23 411.663C826.278 411.351 825.841 410.746 823.633 405.784C821.667 401.394 820.803 400.121 819.393 399.761L817.602 399.274L819.4 402.634C822.029 407.464 822.46 412.275 820.955 419.582C819.083 428.766 815.201 433.421 807.092 436.129C803.859 437.147 793.83 436.008 790.655 434.163ZM815.953 411.232C815.683 409.586 809.873 402.11 808.166 401.101C806.155 399.911 801.659 400.059 799.511 401.384L797.655 402.556L799.078 404.922C800.173 406.834 800.957 407.36 802.974 407.683C804.34 407.902 805.709 408.522 806.071 409.181C806.497 409.851 807.931 410.481 809.743 410.838C811.369 411.099 813.28 411.672 813.954 412.048C815.531 413.035 816.244 412.748 815.953 411.232Z" fill="#090C0C"/>
<path d="M722.273 418.597C721.6 416.552 721.182 413.747 721.271 412.358C721.537 409.863 721.613 409.808 725.195 409.113C727.759 408.522 728.849 407.962 728.985 407.116C729.11 406.334 729.639 405.951 730.42 406.076C731.916 406.316 732.019 409.004 730.809 416.558C729.859 422.484 729.268 423.258 725.82 422.705C723.607 422.351 723.324 422.038 722.273 418.597Z" fill="#090C0C"/>
<path d="M749.65 420.179C748.469 418.386 747.524 416.365 747.618 415.779C747.712 415.193 746.724 413.031 745.4 410.881C744.076 408.732 742.648 405.565 742.183 403.887C741.652 402.199 740.552 399.485 739.611 397.864C738.669 396.244 737.642 393.074 737.336 390.82C736.273 383.704 735.286 379.872 734.162 378.556C732.655 376.712 732.271 374.112 732.928 370.01L733.492 366.493L735.639 366.837C738.437 367.286 738.973 368.106 742.26 377.583C743.705 381.889 746.129 388.422 747.538 392.121C748.948 395.82 751.096 401.575 752.232 404.896C753.368 408.217 755.011 412.956 755.937 415.509C756.863 418.062 757.455 421.029 757.257 422.266C756.934 424.285 756.793 424.329 754.385 423.943C752.238 423.599 751.596 423.029 749.65 420.179Z" fill="#090C0C"/>
<path d="M669.431 364.778C669.653 362.142 671.312 344.707 673.224 326.112C675.071 307.505 676.905 288.563 677.3 284.017C678.068 275.057 679.056 271.808 681.597 269.277C683.568 267.388 684.139 265.075 682.707 264.846C681.406 264.637 681.886 261.642 683.271 261.329C684.028 261.184 684.456 260.183 684.831 257.839L685.353 254.583L687.5 254.927C690.688 255.438 691.599 257.254 690.879 261.747C690.43 264.547 690.593 266.444 691.62 269.614C692.902 273.693 692.867 278.497 691.565 278.288C690.394 278.1 690.589 279.801 692.476 287.184C694.573 295.335 695.559 297.096 699.499 299.998C702.372 302.061 704.445 306.201 705.51 312.049C706.035 314.604 706.035 314.604 709.634 315.047L713.299 315.501L713.207 318.158C713.238 319.632 713.401 321.528 713.731 322.383C714.061 323.237 714.168 324.657 714.022 325.569C713.875 326.48 714.011 327.304 714.401 327.366C715.637 327.564 718.754 337.682 718.348 340.222C717.972 342.566 717.896 342.621 715.684 342.266C713.667 341.943 713.209 341.469 711.945 338.528C711.121 336.592 710.302 333.789 710.151 332.229C709.855 329.911 709.494 329.251 708.323 329.064C707.542 328.939 706.714 328.272 706.418 327.623C705.547 325.146 705.093 327.144 704.64 336.222C704.367 341.254 704.092 345.886 703.998 346.472C703.904 347.058 702.316 347.805 699.893 348.352C695.111 349.456 687.296 352.412 684.123 354.308C681.543 355.831 674.492 363.184 672.603 366.221C671.895 367.31 670.83 368.542 670.171 368.904C669.211 369.485 669.078 369.063 669.431 364.778Z" fill="#090C0C"/>
<path d="M724.734 349.928C722.201 344.913 719.975 338.812 720.15 337.304C720.264 336.588 720.075 334.019 719.714 331.691C719.057 327.044 719.606 321.12 720.775 320.907C721.251 320.849 721.598 319.102 721.828 315.999L722.124 311.237L720.042 310.904C715.682 310.205 712.461 306.149 713.098 302.177C713.453 299.963 713.604 299.853 715.491 300.156C716.792 300.364 718.294 301.406 719.821 303.12C721.97 305.535 722.524 305.825 725.244 305.926C727.097 306.023 728.443 306.372 728.63 306.87C728.838 307.237 728.355 313.171 727.605 319.931C726.179 332.994 726.246 335.075 728.467 340.374C729.182 342.158 729.747 344.052 729.663 344.573C729.58 345.094 729.988 346.295 730.558 347.321C731.127 348.347 731.431 350.199 731.202 351.632C730.836 353.911 730.75 354.031 728.668 353.698C726.846 353.406 726.204 352.835 724.734 349.928Z" fill="#090C0C"/>
<path d="M757.518 346.498C757.186 343.573 756.901 339.52 756.889 337.514C756.812 335.498 756.683 332.137 756.605 330.121C756.593 328.115 757.043 321.976 757.703 316.605C759.024 305.862 760.306 301.192 764.096 293.784C765.542 291.01 766.266 288.989 765.938 288.535C765.119 287.402 766.172 282.495 767.424 281.76C768.018 281.388 768.599 280.679 768.693 280.093C768.776 279.572 769.352 278.062 770.026 276.767C771.149 274.342 771.462 274.058 777.106 270.487C778.822 269.36 782.771 266.786 785.825 264.804C790.152 261.958 793.036 260.617 798.412 259.14C808.33 256.388 815.011 255.922 826.2 257.314C839.081 258.978 843.383 260.869 852.079 269.075C855.566 272.306 859.372 276.456 860.673 278.334C862.827 281.551 862.895 281.963 862.76 288.22C862.662 291.744 862.736 295.029 863.01 295.407C863.207 295.839 863.308 298.126 863.172 300.642L862.928 305.078L860.791 304.669C858.839 304.356 858.217 303.656 855.653 298.836C853.988 295.898 851.54 292.433 850.189 291.282C848.849 290.065 846.484 287.749 845.012 286.111C839.384 279.999 828.797 274.429 818.165 272.057C814.563 271.213 812.505 271.15 809.279 271.702C806.736 272.163 803.399 272.162 800.927 271.766C798.454 271.37 795.909 271.43 794.373 271.851C792.199 272.505 791.876 272.854 791.532 275.003C791.198 277.087 790.531 277.915 786.886 280.671C784.6 282.442 781.658 284.976 780.388 286.242C779.107 287.573 777.586 288.732 777.099 288.854C775.368 289.245 771.642 294.592 769.003 300.648C765.627 308.39 763.235 322.901 762.954 337.15C762.9 342.485 762.739 348.069 762.684 349.663L762.571 352.451L760.359 352.096C758.146 351.742 758.146 351.742 757.518 346.498Z" fill="#090C0C"/>
<path d="M798.416 356.992C793.674 354.095 790.188 350.865 787.508 346.762C784.173 341.752 782.933 337.412 782.816 330.647C782.619 314.385 791.366 301.026 804.809 297.102C810.757 295.383 815.578 295.287 822.423 296.718C829.583 298.266 833.988 301.176 838.468 307.371C843.593 314.537 845.28 322.756 843.631 333.045C841.429 346.785 834.182 355.777 822.385 359.43C817.681 360.881 817.15 360.862 809.31 359.806C802.653 358.873 800.667 358.355 798.416 356.992Z" fill="#090C0C"/>
<path d="M772.205 343.975C770.025 338.416 769.361 334.236 769.997 330.263L770.519 327.007L772.731 327.362C774.878 327.706 774.923 327.846 775.886 333.077C776.424 335.968 777.336 339.855 777.911 341.684C778.485 343.512 778.836 345.906 778.659 347.013C778.366 348.837 778.15 348.936 776.068 348.602C774.051 348.279 773.713 347.891 772.205 343.975Z" fill="#090C0C"/>
<path d="M770.783 317.031C772.15 308.5 777.807 296.515 783.606 289.897C789.426 283.148 800.384 276.822 808.771 275.294C814.063 274.339 817.142 274.698 826.964 277.541C836.591 280.353 841.889 283.94 847.004 291.172C852.053 298.393 856.361 311.908 855.433 317.703C855.109 319.722 854.958 319.832 853.006 319.519C851.054 319.206 850.672 318.677 849.01 314.47C847.887 311.485 846.989 310.005 846.591 310.409C846.257 310.823 845.044 310.896 843.829 310.568C841.908 310.059 841.69 309.757 841.787 307.903C841.884 306.048 841.676 305.681 840.309 305.462C839.398 305.316 837.767 304.253 836.687 303.078C835.214 301.439 834.85 300.379 835.101 298.816C835.278 297.709 835.835 296.73 836.247 296.662C837.827 296.381 828.909 290.811 824.664 289.396C812.244 285.268 804.16 286.578 793.568 294.365C785.716 300.054 778.174 310.467 775.423 319.31C774.667 321.527 774.516 321.636 772.434 321.303L770.157 320.938L770.783 317.031Z" fill="#090C0C"/>
<path d="M697.159 285.864C696.202 283.506 697.007 280.563 698.738 280.172C699.701 279.992 699.949 279.698 699.545 279.3C699.132 278.966 699.015 277.611 699.244 276.179C699.714 273.248 700.352 273.017 705.622 273.861C710.177 274.591 711.28 276.037 710.56 280.53L710.101 283.395L706.889 282.614L703.667 281.897L703.166 285.023L702.676 288.083L700.203 287.687C698.512 287.416 697.598 286.869 697.159 285.864Z" fill="#090C0C"/>
<path d="M695.443 264.081C695.319 263.193 694.393 260.64 693.35 258.403C690.913 253.203 691.185 249.84 694.02 249.226C695.048 249.057 697.172 249.13 698.778 249.521L701.739 250.196L703.858 256.546C705.018 260.139 705.831 263.809 705.633 265.046L705.364 267.141L700.549 266.369C696.06 265.65 695.69 265.457 695.443 264.081Z" fill="#090C0C"/>
<path d="M779.344 250.274C778.837 248.857 777.866 247.833 776.596 247.429C774.902 246.757 774.748 246.465 775.114 244.186C775.468 241.972 775.877 241.503 777.876 240.688C779.097 240.149 780.818 239.823 781.664 239.959C782.705 240.126 783.158 239.797 783.335 238.69C783.523 237.518 784.484 236.937 788.139 235.786L792.702 234.38L793.693 228.194C794.507 223.114 794.88 222.039 795.661 222.164C796.311 222.268 796.741 221.669 796.95 220.367C797.19 218.869 797.523 218.455 798.564 218.621C799.475 218.767 799.792 219.286 799.625 220.328C799.041 223.974 800.416 230.807 802.317 233.516C804.601 236.755 807.901 237.818 808.678 235.471C809.22 233.754 811.396 233.502 817.684 234.242L822.27 234.777L822.373 237.465C822.569 242.906 823.086 245.928 823.802 246.043C824.192 246.105 825.14 246.858 825.936 247.721C827.234 249.198 827.278 249.338 826.133 249.823C825.43 250.044 824.753 250.938 824.617 251.784C824.398 253.152 823.987 253.219 817.626 252.935C807.753 252.488 805.226 252.017 803.795 250.117C802.681 248.737 802.301 248.609 799.659 248.854C798.025 249.059 795.471 249.585 794.065 250.028C792.66 250.471 790.679 250.754 789.768 250.608C788.727 250.441 788.079 250.738 787.985 251.324C787.786 252.562 785.082 253.197 782.219 252.738C780.592 252.478 779.95 251.907 779.344 250.274Z" fill="#090C0C"/>
<path d="M802.564 227.812C802.182 227.283 802.065 225.928 802.253 224.756C802.587 222.672 802.727 222.628 805.07 223.003C808.128 223.494 808.958 224.562 808.509 227.362C808.175 229.446 808.035 229.49 805.692 229.115C804.326 228.896 802.947 228.341 802.564 227.812Z" fill="#090C0C"/>
<path d="M734.512 206.02C734.867 203.806 734.943 203.752 737.48 204.158C740.018 204.565 740.072 204.64 739.718 206.854C739.363 209.069 739.287 209.123 736.75 208.717C734.212 208.31 734.157 208.234 734.512 206.02Z" fill="#090C0C"/>
<path d="M762.499 211.707C762.064 211.504 761.862 210.269 762.06 209.032C762.425 206.753 762.425 206.753 765.192 207.396C767.828 208.019 767.883 208.095 767.692 210.535C767.511 212.911 767.436 212.966 765.364 212.567C764.193 212.379 762.858 211.965 762.499 211.707Z" fill="#090C0C"/>
<path d="M709.64 195.89C706.884 195.181 706.884 195.181 707.301 192.576C707.698 190.102 707.773 190.047 709.986 190.402L712.263 190.767L712.884 186.057L713.44 181.337L718.336 181.186C720.958 181.072 723.209 180.765 723.261 180.439C723.313 180.114 720.752 179.436 717.499 178.915L711.643 177.977L710.85 182.926C710.161 187.224 709.937 187.789 709.206 186.937C708.759 186.398 707.109 185.866 705.386 185.79C703.673 185.65 702.468 185.256 702.53 184.865C702.583 184.54 702.873 180.646 703.226 176.361L703.882 168.517L706.611 166.483C709.133 164.483 709.685 164.371 716.153 164.406C724.886 164.469 724.311 164.31 724.456 166.738L724.577 168.895L728.674 169.15C734.483 169.547 735.056 169.305 735.505 166.505L735.891 164.095L744.072 164.27C752.328 164.391 752.328 164.391 754.386 166.124C756.575 167.877 757.419 171.352 756.72 175.715C756.344 178.059 755.298 178.76 751.8 178.934L749.178 179.048L752.554 180.057C754.41 180.555 756.872 181.016 757.955 180.922C761.107 180.826 762.072 182.717 761.778 187.88C761.587 190.321 761.475 193.108 761.438 194.171C761.448 195.776 761.221 195.94 759.594 195.679C758.618 195.523 756.175 194.53 754.142 193.469C744.001 188.037 733.191 188.443 721.497 194.784C716.378 197.571 716.378 197.571 709.64 195.89ZM729.837 176.884C730.056 175.517 730.53 175.058 731.819 174.931C734.331 174.665 733.446 173.522 730.89 173.647C728.875 173.725 728.638 173.954 728.036 176.462C727.486 178.645 727.609 179.132 728.441 178.932C729.069 178.765 729.67 177.926 729.837 176.884Z" fill="#090C0C"/>
<path d="M780.911 452.907C777.752 451.799 769.472 445.997 769.639 444.955C769.806 443.914 774.225 445.49 778.401 448.163C780.533 449.44 783.76 450.959 785.68 451.467C788.491 452.251 789.1 452.616 788.944 453.593C788.725 454.96 786.491 454.736 780.911 452.907Z" fill="#353939"/>
<path d="M792.207 454.049C792.333 453.267 792.872 452.819 793.587 452.934C794.173 453.028 796.286 453.166 798.205 453.273C801.065 453.331 801.63 453.555 801.494 454.401C801.39 455.053 800.255 455.472 797.97 455.573C792.988 455.844 791.967 455.547 792.207 454.049Z" fill="#353939"/>
<path d="M802.314 453.865C802.44 453.083 803.908 452.25 806.493 451.529C808.666 450.875 811.983 449.336 813.839 448.164L817.185 446.028L813.446 447.7C805.613 451.187 794.587 451.692 785.481 448.963C772.184 444.896 763.949 435.895 761.07 422.209C759.576 415.29 759.491 412.071 760.173 397.819C761.162 377.072 760.304 373.261 752.104 361.126C749.831 357.823 747.695 354.075 747.362 352.819C746.975 351.488 746.917 347.271 747.236 342.78C747.578 338.56 748.375 329.003 748.969 321.55C749.562 314.098 750.542 304.236 751.163 299.526C752.76 287.893 752.846 287.773 764.824 274.664C771.055 267.848 781.901 260.97 792.085 257.392C795.977 256.011 796.49 254.891 794.546 252.443C793.716 251.375 793.11 251.411 788.114 253.015C780.513 255.471 779.037 255.101 775.877 250.253C773.624 246.819 773.403 246.116 773.974 243.803C774.448 241.675 775.018 241.031 777.114 240.031C778.486 239.383 780.072 238.234 780.652 237.526C781.254 236.687 783.761 235.619 787.028 234.807L792.393 233.396L792.952 227.407L793.521 221.353L795.031 221.929C796.486 222.43 796.574 222.711 795.958 226.553C795.604 228.767 795.298 231.924 795.243 233.518L795.174 236.446L790.189 237.985C787.463 238.751 785.162 239.785 785.1 240.175C785.037 240.566 785.869 242.035 786.907 243.471C787.945 244.906 788.747 246.571 788.642 247.222C788.402 248.72 789.183 248.845 792.502 247.707C793.973 247.275 797.273 246.668 799.71 246.457L804.247 246.049L805.842 248.174L807.436 250.3L815.055 250.653C822.478 250.974 822.684 250.94 823.14 249.343C823.565 247.942 823.932 247.733 825.613 248.07C827.674 248.534 830.776 250.834 830.609 251.876C830.557 252.201 829.409 252.285 828.108 252.076C825.049 251.586 826.184 252.837 829.929 254.038C831.319 254.528 834.686 256.002 837.328 257.428C844.24 260.94 858.002 273.765 862.421 280.752C869.752 292.479 871.726 298.072 871.332 306.358C871.092 310.898 869.503 323.255 867.838 334.741C866.077 346.884 864.229 358.053 863.794 357.983C863.404 357.921 861.842 359.34 860.357 361.106C858.873 362.872 857.441 364.313 857.181 364.271C856.855 364.219 856.545 364.904 856.399 365.815C856.253 366.727 855.501 367.675 854.712 368.016C853.923 368.358 853.191 369.175 853.087 369.827C852.753 371.91 851.191 373.33 849.564 373.069C848.133 372.84 847.979 372.548 848.355 370.204C848.584 368.771 849.033 367.641 849.358 367.693C849.618 367.735 850.366 365.984 850.916 363.801C851.476 361.553 852.274 359.076 852.669 358.271C853.172 357.216 853.159 356.88 852.587 357.123C852.089 357.31 851.391 358.334 850.878 359.454C850.258 360.824 849.493 361.436 848.41 361.53C846.32 361.662 844.708 363.809 844.134 367.39C843.769 369.669 843.501 370.094 842.46 369.927C841.744 369.812 840.911 370.013 840.663 370.307C840.406 370.667 840.624 370.969 841.145 371.052C842.446 371.261 843.164 373.446 842.757 375.986C842.433 378.005 842.433 378.005 839.406 377.319C836.445 376.644 836.325 376.559 836.453 374.508C836.511 373.315 836.342 372.287 836.017 372.234C835.691 372.182 835.209 373.107 834.891 374.258L834.362 376.311L829.852 375.722C825.547 375.099 822.613 375.497 820.911 376.961C819.994 377.682 805.874 377.089 800.689 376.125C791.491 374.384 780.498 371.353 780.168 370.499C779.783 369.569 776.259 374.481 775.957 376.37C775.863 376.956 775.095 377.167 773.533 376.917C771.516 376.594 771.287 376.356 771.517 374.924C771.694 373.817 771.234 372.941 770.037 372.082C768.012 370.555 767.713 369.505 768.308 365.793C768.548 364.296 768.33 362.324 767.891 361.318C767.386 360.302 766.926 357.757 766.794 355.666C766.727 353.584 766.07 350.607 765.313 349.083C764.007 346.402 764.018 346.337 764.16 348.364C764.243 349.513 765.12 356.533 766.185 364.051L768.067 377.711L770.245 377.859C771.838 377.914 772.687 378.451 773.42 379.704L774.417 381.4L774.711 379.978C774.92 378.675 775.277 378.532 777.879 378.949L780.807 379.418L780.38 382.088L779.952 384.758L777.065 384.028C774.299 383.385 774.223 383.439 773.725 385.297C773.334 386.904 772.881 387.232 771.364 387.122C769.641 387.047 769.48 387.221 769.567 389.172C769.707 392.467 771.683 398.461 772.836 399.18C773.999 399.834 775.444 398.73 779.865 393.628C783.555 389.343 789.395 385.804 794.814 384.468C798.698 383.554 800.096 383.578 807.318 384.735C815.267 385.942 815.582 386.059 819.423 388.745C823.318 391.507 826.352 395.065 830.106 401.21C831.583 403.651 832.4 404.383 834.027 404.644C835.393 404.863 836.046 405.368 836.182 406.191C836.682 410.146 836.245 416.621 835.074 423.514C833.755 430.917 833.585 431.557 831.838 432.881C830.685 433.831 830.052 434.865 830.122 435.678C830.309 437.845 824.791 444.375 819.172 448.618C812.27 453.79 801.662 457.1 802.314 453.865ZM780.973 441.695C773.018 435.946 768.58 429.49 766.773 421.186C765.638 416.195 766.169 409.133 767.773 407.453C768.892 406.297 768.957 406.307 769.287 408.831C769.638 411.225 769.856 411.527 771.928 411.926C774.38 412.452 774.39 412.387 776.099 406.717C776.556 405.12 777.936 402.336 779.095 400.517C780.415 398.525 780.736 397.775 779.863 398.637C776.978 401.648 775.229 402.57 772.821 402.184C771.13 401.913 770.097 401.28 769.134 399.79C768.434 398.742 767.552 398 767.25 398.219C766.948 398.437 766.116 402.379 765.396 406.872C763.56 418.333 764.859 425.221 770.218 433.426C773.16 437.972 774.674 439.35 780.035 442.547C785.276 445.658 785.815 445.21 780.973 441.695ZM798.252 443.396C800.147 443.232 802.756 442.781 804.086 442.393C806.455 441.771 806.52 441.781 804.773 441.435C803.222 441.119 803.004 440.817 803.275 439.124C803.567 437.301 803.393 437.139 801.31 436.806C798.057 436.284 798.643 434.708 802.228 434.414C818.34 432.989 825.385 412.343 813.934 400.089L810.63 396.553L805.294 395.699C799.103 394.773 795.175 395.546 790.871 398.664C786.578 401.716 784.518 404.993 783.285 410.607C781.04 420.867 784.694 428.466 794.115 432.981C797.951 434.865 797.365 436.44 793.198 435.372C791.407 434.885 789.955 434.786 789.903 435.111C789.84 435.502 788.518 435.424 786.912 435.033C784.916 434.579 783.974 434.629 783.89 435.15C783.817 435.606 784.47 436.111 785.381 436.257C786.813 436.486 786.966 436.778 786.643 438.797C786.236 441.336 786.845 441.701 793.898 443.499C794.408 443.648 796.412 443.635 798.252 443.396ZM778.087 416.386C778.138 413.99 778.592 410.322 779.131 408.204C779.945 404.795 779.976 404.599 779.002 406.514C777.986 408.689 776.837 417.522 777.339 419.806C777.807 421.885 778.028 420.919 778.087 416.386ZM831.058 408.176C833.596 408.583 833.391 406.947 830.82 406.334C829.529 406.061 828.483 405.091 827.388 403.179C823.137 395.552 818.113 390.672 812.923 388.906C810.643 388.14 810.753 388.291 814.354 390.805C820.23 394.952 823.722 398.985 826.172 404.521C827.402 407.256 828.507 409.103 828.71 408.668C828.914 408.233 829.952 407.999 831.058 408.176ZM809.733 387.994C809.457 387.215 804.111 386.425 801.664 386.701C800.571 386.86 801.711 387.243 804.964 387.764C807.752 388.278 809.876 388.351 809.733 387.994ZM806.862 363.422C807.392 361.369 807.532 361.325 810.33 361.773C812.738 362.159 813.216 362.503 813.354 363.727C813.46 365.147 813.525 365.157 818.901 363.681C822.816 362.572 824.339 361.814 824.485 360.902C824.589 360.251 825.159 359.607 825.711 359.496C826.273 359.318 826.792 359.001 826.833 358.74C826.875 358.48 825.219 358.816 823.241 359.5C821.187 360.24 817.616 360.87 815.341 360.906C811.106 361.096 801.453 359.282 799.451 358.026C798.593 357.555 798.301 357.708 798.134 358.75C797.946 359.922 797.525 360.055 794.987 359.649C793.295 359.378 791.221 358.578 790.263 357.89C789.251 357.127 788.447 356.731 788.416 356.926C788.29 357.707 794.968 361.85 798.682 363.246C805.545 365.815 806.216 365.789 806.862 363.422ZM785.247 352.544C782.351 348.54 780.037 342.158 779.55 336.87C779.399 335.31 779.406 331.103 779.579 327.524C779.88 321.895 780.227 320.147 781.954 315.615C783.703 310.952 788.208 303.659 790.901 301.018C793.033 298.955 800.661 293.832 802.434 293.181C803.559 292.827 805.396 292.186 806.521 291.832C807.721 291.423 811.227 290.783 814.356 290.416C818.979 289.888 819.833 289.557 818.724 288.978C816.247 287.78 809.292 287.868 804.598 289.253C799.147 290.784 789.525 297.525 785.148 302.768C780.825 308.086 777.014 315.625 776.221 320.574C774.708 330.016 777.731 342.39 783.623 351.015C785.689 353.951 787.492 356.444 787.687 356.475C787.947 356.517 786.831 354.735 785.247 352.544ZM820.821 357.109C840.621 350.997 848.594 326.226 836.203 309.012C830.412 301.004 822.48 297.195 813.395 298.077C798.702 299.396 788.058 309.179 785.697 323.495C783.386 337.084 788.513 347.991 800.681 355.351C802.812 356.628 804.788 357.212 809.699 357.798C815.251 358.554 816.464 358.481 820.821 357.109ZM760.619 336.308C760.801 330.593 761.54 323.899 762.878 315.964C764.581 305.751 765.228 303.383 767.374 298.317C770.003 292.326 773.729 286.978 775.46 286.588C775.947 286.466 777.468 285.307 778.749 283.976C780.019 282.71 782.961 280.175 785.247 278.404C789.421 275.266 790.377 273.883 789.2 272.893C786.739 270.762 794.21 268.285 799.709 269.367C801.836 269.841 805.032 269.886 807.424 269.535C812.555 268.754 818.559 269.181 822.284 270.513C836.095 275.531 842.161 278.908 847.277 284.47C848.749 286.108 851.049 288.414 852.4 289.565C853.74 290.782 856.1 293.965 857.611 296.612C860.217 301.171 860.392 301.332 860.848 299.736C861.124 298.845 861.117 297.641 860.854 297.198C860.536 296.68 860.397 293.385 860.505 289.795C860.619 283.669 860.507 283.117 858.616 280.342C857.479 278.691 856.592 277.146 856.634 276.885C856.79 275.908 852.692 271.912 847.806 268.257C840.361 262.656 835.603 260.691 826.247 259.526C816.64 258.254 809.406 258.831 800.051 261.407C793.129 263.37 790.796 264.599 778.724 272.884C776.998 274.077 775.313 275.009 774.988 274.957C774.207 274.832 771.77 278.382 770.8 281.099C770.352 282.229 769.462 283.623 768.837 284.191C767.769 285.022 767.772 285.423 768.489 287.608C769.327 289.88 769.285 290.14 767.975 292.068C767.202 293.146 765.498 296.28 764.258 299.02C762.182 303.229 761.653 305.282 760.307 313.682C759.506 319.098 758.798 325.597 758.857 328.144C759.166 339.548 759.549 345.488 760.077 345.105C760.293 345.006 760.529 341.036 760.619 336.308ZM775.635 343.39C775.071 341.496 774.169 337.544 773.587 334.512C772.512 328.729 771.288 328.867 772.234 334.629C772.719 337.846 775.796 346.555 776.446 346.659C776.576 346.68 776.275 345.229 775.635 343.39ZM844.655 337.484C846.07 333.235 846.258 332.063 845.923 328.737C845.736 326.569 845.365 324.306 845.068 323.657C844.629 322.652 844.564 322.641 844.733 323.67C845.345 328.177 843.163 339.716 840.691 344.73C840.391 345.35 840.769 345.077 841.521 344.128C842.339 343.191 843.686 340.201 844.655 337.484ZM774.305 315.458C774.839 312.538 780.02 303.95 783.871 299.491C788.12 294.628 794.817 289.489 799.906 287.299C806 284.669 809.681 284.19 816.568 285.36C828.931 287.341 834.789 290.35 841.879 298.166C847.376 304.256 848.557 306.049 851.187 312.548C852.385 315.479 853.428 317.716 853.46 317.521C853.658 316.284 852.088 309.42 850.388 304.205C847.606 295.744 842.764 288.89 836.464 284.474C832.504 281.702 830.57 280.858 823.863 278.981C816.016 276.722 815.821 276.691 811.102 277.404C802.746 278.737 791.216 285.305 785.17 292.218C781.157 296.852 777.888 302.673 774.903 310.477C772.844 315.825 771.887 320.547 773.229 318.424C773.669 317.76 774.148 316.434 774.305 315.458ZM841.768 303.024C841.882 302.307 838.515 299.163 837.409 298.986C836.693 298.871 840.437 303.412 841.208 303.602C841.468 303.644 841.715 303.349 841.768 303.024ZM785.734 249.962C786.478 249.48 783.498 242.256 782.522 242.1C781.481 241.933 777.18 243.782 777.066 244.499C777.024 244.759 777.862 245.361 778.861 245.788C780.131 246.192 781.102 247.216 781.609 248.633C782.412 250.699 783.932 251.209 785.734 249.962Z" fill="#353939"/>
<path d="M791.432 415.986C789.814 413.59 790.543 412.371 793.341 412.819C794.643 413.028 796.431 413.114 797.243 413.043C799.354 412.781 799.658 414.633 797.762 416.466C796.007 418.256 792.712 417.995 791.432 415.986Z" fill="#353939"/>
<path d="M813.201 414.665C811.678 413.754 809.169 412.75 807.608 412.5C805.861 412.154 804.308 411.437 803.696 410.671C802.801 409.593 802.421 409.465 801.135 409.994C799.849 410.522 799.48 410.329 798.049 408.43C797.099 407.276 796.09 405.244 795.757 403.989C795.29 401.91 795.363 401.454 796.428 400.222C798.118 398.422 799.664 397.936 803.716 398.051C809.167 398.189 811.004 399.218 814.815 404.171C817.862 408.065 818.322 408.94 818.176 411.522C818.079 413.376 817.654 414.778 816.954 415.4C816.016 416.252 815.756 416.21 813.201 414.665Z" fill="#353939"/>
<path d="M737.912 438.87C738.1 437.698 737.545 437.409 733.639 436.382L729.157 435.196L729.94 430.312C730.712 425.493 730.798 425.373 732.659 425.004C735.288 424.423 738.637 421.019 737.763 419.81C737.38 419.281 737.305 417.666 737.545 416.168C737.963 413.564 736.03 402.3 734.613 399.067C734.272 398.278 733.991 396.697 733.919 395.483C733.836 394.334 733.36 392.722 732.824 391.901C732.19 390.864 731.915 386.746 731.921 378.798C731.934 372.054 731.553 366.516 731.059 365.435C730.619 364.43 730.253 362.968 730.172 362.221C730.03 360.194 719.756 345.59 718.39 345.371C717.739 345.267 713.788 345.769 709.535 346.491L701.926 347.743L701.953 345.075C701.987 343.611 702.356 338.394 702.738 333.512C704.022 316.753 703.981 315.344 702.114 309.501C700.58 304.913 699.901 303.736 697.583 301.962C693.195 298.52 692.209 296.759 690.12 288.142C687.464 277.23 687.51 277.772 689.171 276.569C690.681 275.475 690.681 275.475 689.179 270.692C687.886 266.678 687.804 265.529 688.512 262.77C689.211 260.077 689.196 259.34 688.191 258.11L686.969 256.579L686.996 259.321C686.977 261.523 686.657 262.273 685.449 263.148C684.618 263.75 683.899 264.903 683.894 265.771C683.823 266.628 683.727 266.813 683.691 266.206C683.642 265.263 682.903 264.877 680.365 264.471C677.632 264.033 677.208 263.764 677.385 262.657C677.531 261.746 678.049 261.428 679.091 261.595C679.871 261.72 681.311 261.483 682.251 261.032C683.708 260.264 683.912 259.829 683.928 257.227C684.005 253.833 685.015 252.525 687.358 252.901C688.269 253.046 688.982 252.76 689.065 252.239C689.149 251.718 689.688 251.27 690.25 251.093C690.867 250.991 691.414 250.077 691.591 248.97C691.863 247.277 692.251 246.938 694.08 246.764L696.322 246.522L696.815 242.193C697.254 237.788 697.254 237.788 699.011 238.07C700.703 238.341 700.747 238.481 699.986 241.565C699.49 243.824 699.529 244.832 700.115 244.926C700.505 244.988 700.781 245.767 700.645 246.614C700.488 247.591 700.819 248.445 701.503 248.755C702.547 249.323 707.786 264.523 707.494 266.346C707.41 266.867 707.512 267.485 707.816 267.667C708.295 268.011 709.343 271.051 714.48 287.303C719.098 301.802 720.019 303.553 723.727 304.147C727.762 304.794 729.034 305.599 729.512 307.612C729.681 308.641 729.26 314.184 728.537 319.946C727.222 329.821 727.256 335.437 728.658 337.933C728.856 338.365 731.071 344.531 733.466 351.661C735.871 358.726 738.867 366.686 740.053 369.281C741.304 371.886 742.261 374.244 742.219 374.504C742.177 374.765 743.865 379.644 745.969 385.257C748.007 390.861 750.917 398.941 752.384 403.117C753.85 407.293 756.505 414.464 758.299 419.093C760.104 423.657 762.065 428.914 762.78 430.698C763.43 432.472 764.395 434.364 764.832 434.968C765.345 435.518 765.581 436.958 765.383 438.195L765.028 440.41L763.371 438.675C761.877 437.166 761.432 437.028 759.17 437.4C757.59 437.682 755.162 437.426 752.916 436.866C749.91 436.05 748.717 435.993 746.523 436.776C744.977 437.263 744.394 437.571 745.141 437.49C748.215 437.048 752.811 437.517 752.686 438.298C752.488 439.536 746.634 440.668 742.006 440.394C737.974 440.149 737.724 440.042 737.912 438.87ZM753.485 416.652C752.372 413.602 750.685 408.722 749.681 405.823C748.677 402.924 746.683 397.461 745.273 393.762C743.864 390.063 741.44 383.53 739.995 379.224C738.474 374.973 736.812 370.765 736.211 369.934C735.173 368.499 735.173 368.499 734.901 370.192C734.526 372.537 735.139 375.373 736.427 376.916C737.551 378.231 738.539 382.063 739.601 389.18C739.907 391.433 740.934 394.603 741.876 396.223C742.817 397.844 743.917 400.558 744.448 402.246C744.913 403.924 746.341 407.091 747.665 409.241C748.989 411.39 749.977 413.552 749.884 414.138C749.696 415.31 753.788 421.844 754.764 422C755.089 422.052 754.543 419.627 753.485 416.652ZM728.337 349.103C727.733 347.87 727.346 346.539 727.409 346.149C727.482 345.693 726.917 343.799 726.202 342.014C723.981 336.716 723.914 334.635 725.34 321.571C726.09 314.812 726.563 308.943 726.43 308.521C726.222 308.154 725.777 308.016 725.355 308.148C724.858 308.336 724.376 310.93 723.95 315.671C723.422 321.464 723.106 323.017 722.318 323.358C721.464 323.689 721.393 324.546 721.85 328.359C722.115 330.873 722.405 334.059 722.467 335.338C722.64 338.839 728.117 352.14 729.099 351.429C729.25 351.319 728.951 350.27 728.337 349.103ZM716.175 339.205C715.694 336.791 712.667 329.025 712.365 329.244C711.836 329.627 712.912 333.74 714.418 337.254C715.726 340.336 716.632 341.349 716.175 339.205ZM711.913 326.233C711.955 325.972 711.796 324.878 711.487 323.893C711.11 322.497 710.642 322.088 709.624 322.192C708.812 322.263 708 322.333 707.739 322.291C706.763 322.135 706.989 323.64 708.181 325.367C709.263 326.944 711.704 327.535 711.913 326.233ZM715.635 320.083C715.422 318.913 715.441 316.712 715.681 315.214C715.983 313.326 715.825 312.232 715.216 311.867C714.727 311.588 714.25 311.646 714.198 311.971C714.136 312.362 713.118 312.466 711.947 312.278C710.125 311.986 709.656 311.577 709.058 309.478C708.195 306.534 708.72 302.01 710.029 301.752C710.581 301.64 710.444 300.416 709.495 297.592C708.369 294.205 707.932 293.601 706.37 293.351C705.069 293.142 704.426 292.572 704.127 291.522C703.782 289.93 703.782 289.93 703.521 291.558C702.895 295.466 703.623 302.996 705.162 308.386L706.844 314.133L708.953 313.469C710.088 313.049 711.907 312.94 712.993 313.248C714.783 313.735 714.882 313.951 714.574 316.707C714.443 318.356 714.502 320.903 714.663 322.399C715.034 324.662 715.198 324.889 715.527 323.672C715.792 322.847 715.848 321.253 715.635 320.083ZM711.096 318.421C711.926 317.819 710.274 316.886 708.889 317.199C706.552 317.626 706.658 319.045 708.899 318.803C709.982 318.71 710.945 318.53 711.096 318.421ZM721.11 308.403C721.357 308.109 721.28 307.763 720.824 307.69C720.369 307.617 718.909 306.314 717.621 304.772C716.258 303.284 715.092 302.229 715.061 302.425C714.925 303.271 717.113 306.694 718.419 307.705C720.074 309.039 720.464 309.101 721.11 308.403ZM694.518 282.769C696.14 280.557 696.339 279.32 695.121 278.591C694.447 278.215 694.387 277.338 694.841 275.34L695.485 272.571L699.353 272.589C702.223 272.582 703.132 272.327 702.986 271.569C702.864 271.081 702.839 270.409 702.891 270.084C702.932 269.823 700.718 269.068 697.961 268.359C693.154 267.121 692.97 267.025 692.382 264.86C691.828 262.901 691.709 262.815 691.326 263.956C691.07 264.717 691.509 267.392 692.185 269.838C693.568 274.535 693.504 278.265 692.065 278.502C691.373 278.658 691.333 279.319 691.65 281.508C691.931 283.089 692.383 284.43 692.643 284.472C692.969 284.524 693.755 283.782 694.518 282.769ZM701.235 284.58C701.465 283.147 700.625 282.144 699.555 282.574C699.122 282.772 699.094 283.368 699.489 284.233C700.204 286.018 700.985 286.143 701.235 284.58ZM708.619 280.152C708.692 279.696 708.403 278.581 707.943 277.706C707.142 276.042 703.961 275.064 702.092 275.9C700.374 276.627 702.036 279.164 704.652 279.917C705.867 280.246 707.278 280.605 707.723 280.743C708.103 280.871 708.546 280.608 708.619 280.152ZM701.562 258.383C699.508 252.042 699.344 251.815 697.241 251.612C693.642 251.169 693.376 251.995 695.561 256.686C696.593 258.989 697.584 261.552 697.708 262.441C697.911 263.675 698.39 264.019 700.862 264.415L703.725 264.874L701.562 258.383Z" fill="#353939"/>
<path d="M722.746 421.478C721.669 419.035 720.788 416.623 720.871 416.102C720.955 415.581 720.708 414.205 720.3 413.004C719.637 410.894 719.658 410.764 720.899 410.095C722.865 409.074 723.159 409.321 723.514 412.518C723.756 414.76 724.907 418.819 725.883 420.645C725.992 420.796 726.554 420.619 727.213 420.257C728.616 419.413 729.357 414.79 729.313 407.569C729.168 396.391 729.291 395.209 730.658 395.428C731.699 395.595 731.901 396.829 731.95 404.852C731.935 411.195 731.585 415.881 730.766 420.158L729.579 426.314L727.206 426.134C724.897 425.964 724.668 425.727 722.746 421.478Z" fill="#353939"/>
<path d="M696.117 345.676C696.19 345.221 696.651 344.426 697.06 343.957C697.706 343.259 697.805 343.475 697.575 344.908C697.418 345.885 697.033 346.625 696.643 346.562C696.317 346.51 696.055 346.067 696.117 345.676Z" fill="#353939"/>
<path d="M675.809 334.14C675.611 333.708 675.573 331.03 675.642 328.102C675.799 323.786 676.042 322.689 676.872 322.087C677.476 321.65 678.104 321.483 678.268 321.71C678.431 321.936 678.006 325.008 677.378 328.514C676.673 332.074 676.006 334.572 675.809 334.14Z" fill="#353939"/>
<path d="M697.71 331.571C697.762 331.246 698.192 330.647 698.601 330.178C699.246 329.48 699.366 329.566 699.168 330.803C699.043 331.584 698.678 332.194 698.287 332.131C697.962 332.079 697.668 331.832 697.71 331.571Z" fill="#353939"/>
<path d="M697.192 323.139C697.771 322.03 699.233 322.064 699.056 323.171C698.962 323.757 698.434 324.14 697.848 324.046C697.262 323.952 696.989 323.574 697.192 323.139Z" fill="#353939"/>
<path d="M677.228 316.534C676.492 314.88 676.41 310.391 677.014 304.544C677.251 302.645 677.735 296.711 678.125 291.363C678.761 281.98 679.478 278.756 680.57 280.267C681.663 281.777 680.295 307.808 679.037 309.41C678.618 309.944 678.44 311.051 678.664 312.155C679.277 314.992 679.201 318.386 678.55 318.282C678.225 318.23 677.678 317.474 677.228 316.534Z" fill="#353939"/>
<path d="M682.839 275.687C682.425 275.354 681.863 273.861 681.497 272.4C681.019 270.386 681.079 269.594 681.779 268.972C682.243 268.579 682.881 268.347 683.109 268.584C683.338 268.821 683.976 268.589 684.515 268.141C685.916 266.896 686.34 267.165 686.834 269.915C687.281 272.124 687.153 272.505 685.783 273.554C684.942 274.221 684.135 275.094 683.932 275.529C683.729 275.964 683.253 276.021 682.839 275.687Z" fill="#353939"/>
<path d="M672.291 262.375C670.376 261 670.152 256.155 672.038 256.457C673.535 256.697 675.955 259.089 675.788 260.13C675.704 260.651 675.967 261.094 676.292 261.146C676.683 261.209 676.849 261.837 676.734 262.553C676.505 263.986 674.511 263.933 672.291 262.375Z" fill="#353939"/>
<path d="M807.195 240.977C806.568 239.474 805.751 238.742 804.08 238.341C800.684 237.463 798.046 233.099 797.58 227.681C797.064 221.32 797.206 217.936 797.919 217.65C798.221 217.431 801.201 217.575 804.421 217.89L810.285 218.362L815.371 224.521C821.124 231.52 822.221 233.834 822.461 239.416C822.642 244.12 822.074 245.165 821.68 240.961C821.54 239.335 821.345 237.634 821.288 237.157C821.187 236.54 820.091 236.298 817.642 236.172C811.14 235.932 810.859 236.021 809.926 239.344C808.845 243.179 808.261 243.486 807.195 240.977ZM806.032 226.163C805.66 225.569 805.082 225.009 804.757 224.957C804.366 224.895 804.358 225.361 804.73 225.955C805.102 226.549 805.68 227.109 806.005 227.161C806.396 227.224 806.404 226.757 806.032 226.163Z" fill="#353939"/>
<path d="M741.548 212.09C741.788 210.593 741.668 210.507 737.863 210.097C733.917 209.732 733.852 209.722 731.774 206.45C729.948 203.686 729.747 202.852 730.232 200.659L730.78 198.075L735.575 197.307C739.893 196.596 741.215 196.675 748.982 198.186C753.961 199.185 757.56 199.628 757.612 199.302C757.665 198.977 759.854 199.06 762.391 199.467L767.076 200.217L777.919 208.768C783.917 213.402 788.731 217.513 788.679 217.839C788.616 218.23 786.654 217.982 783.648 217.166C780.902 216.392 775.132 215.334 770.902 214.657C764.245 213.723 762.909 213.309 761.58 212.027C760.773 211.23 759.337 210.198 758.392 209.847C756.838 209.13 756.687 209.24 756.343 211.389C756.03 213.342 755.697 213.756 753.77 214.116C752.537 214.319 749.2 214.318 746.436 214.076C741.363 213.664 741.298 213.653 741.548 212.09Z" fill="#353939"/>
<path d="M704.069 199.005C703.84 198.768 703.864 197.369 704.083 196.001C704.406 193.983 704.284 193.496 703.178 193.318C700.901 192.953 702.093 191.341 705.746 189.789C709.323 188.292 710.044 187.539 708.933 186.559C708.639 186.312 708.439 185.478 708.554 184.762C708.658 184.111 708.455 182.876 708.18 182.097C707.696 180.951 707.779 180.43 708.597 179.492C709.178 178.784 709.519 177.903 709.321 177.471C708.882 176.465 709.224 172.246 709.68 172.319C709.875 172.35 710.791 173.298 711.751 174.387C713.268 176.166 713.898 176.401 717.898 176.841C720.587 177.139 722.601 177.061 722.804 176.626C723.062 176.266 723.744 176.175 724.429 176.485C725.428 176.913 725.6 176.673 725.611 174.938C725.669 172.075 726.942 171.211 731.125 171.347C734.571 171.498 736.984 172.686 735.994 173.863C735.177 174.801 738.279 175.432 741.874 175.073C743.909 174.864 745.729 174.755 745.859 174.776C745.989 174.797 745.819 175.438 745.434 176.177C744.986 177.308 745.095 177.459 746.199 177.235C746.902 177.014 748.742 176.774 750.226 176.678C754.07 176.426 755.052 175.715 753.925 173.998C752.908 172.432 753.677 170.552 754.96 171.292C755.449 171.57 756.247 172.834 756.7 174.175C757.163 175.452 758.643 178.294 759.967 180.443C761.291 182.592 761.983 184.106 761.634 183.783C760.632 182.954 753.396 183.131 752.664 183.948C751.836 184.951 725.066 185.003 724.626 183.998C724.351 183.219 716.365 183.075 715.308 183.84C714.855 184.169 714.203 194.484 714.586 195.013C714.695 195.164 717.007 194.065 719.782 192.572C731.909 186.033 744.767 185.755 756.657 191.935C761.841 194.569 763.589 196.987 759.88 196.393C758.644 196.195 756.081 195.116 754.059 193.99C748.971 191.171 739.731 189.691 734.018 190.779C729.603 191.675 724.469 193.724 719.893 196.464C717.539 197.824 716.36 198.102 714.083 197.737C712.521 197.487 711.178 197.539 711.126 197.865C710.813 199.818 705.26 200.732 704.069 199.005ZM712.092 182.256C712.129 181.194 711.884 181.889 711.602 183.647C711.31 185.471 711.315 186.273 711.57 185.512C711.836 184.687 712.065 183.254 712.092 182.256ZM737.032 182.379C749.437 182.43 754.711 182.005 747.785 181.497C738.941 180.881 725.606 181.216 725.135 182.075C724.856 182.565 725.02 182.792 725.377 182.648C725.744 182.44 731.03 182.352 737.032 182.379ZM739.637 177.787C741.561 177.026 736.553 176.625 733.783 177.249L731.36 177.796L734.936 177.969C736.919 178.086 739.064 178.029 739.637 177.787Z" fill="#353939"/>
<path d="M703.014 178.932C703.244 177.499 703.457 176.999 703.452 177.866C703.457 178.669 703.269 179.841 703.034 180.471C702.745 181.026 702.72 180.354 703.014 178.932Z" fill="#353939"/>
<path d="M783.905 453.386C773.549 450.124 763.973 441.576 760.559 432.48C759.854 430.63 757.839 425.298 756.034 420.734C754.24 416.105 751.585 408.934 750.119 404.758C748.652 400.582 745.742 392.501 743.704 386.898C741.6 381.284 739.912 376.405 739.954 376.145C739.996 375.884 739.039 373.527 737.788 370.922C736.602 368.327 733.606 360.367 731.201 353.302C728.806 346.172 726.591 340.006 726.393 339.574C724.991 337.078 724.957 331.462 726.272 321.587C726.995 315.825 727.416 310.282 727.182 309.243C726.78 307.174 724.443 305.932 721.53 306.2C718.011 306.504 717.043 304.212 707.122 272.832C705.884 268.894 704.674 267.698 705.792 271.551C706.18 272.882 706.307 274.171 706.015 274.325C705.778 274.554 703.613 274.741 701.338 274.778C696.246 274.897 695.754 275.887 699.509 278.693C700.935 279.789 702.286 280.941 702.439 281.233C702.582 281.59 703.105 282.074 703.659 282.363C704.573 282.91 705.376 284.976 706.489 289.696C706.845 291.223 707.063 291.525 707.394 290.71C707.618 290.144 707.421 288.042 706.932 286.094C706.444 284.145 706.249 282.444 706.551 282.225C707.166 281.723 706.934 281.085 711.484 295.172C713.705 302.14 716.204 308.619 716.924 309.536C717.929 310.766 718.217 311.881 717.935 313.639C717.727 314.941 717.643 317.132 717.759 318.486C717.876 319.841 717.963 323.462 717.863 326.585C717.763 329.708 718.103 333.837 718.537 335.71C719.872 341.535 724.492 351.025 729.421 358.16L734.143 364.928L734.173 376.822C734.191 385.04 734.455 389.223 735.1 390.195C735.625 391.081 736.101 392.693 736.184 393.842C736.257 395.056 736.537 396.637 736.878 397.426C738.251 400.518 740.261 412.129 739.93 414.614C739.7 416.046 739.874 417.877 740.215 418.667C740.621 419.467 740.844 420.571 740.761 421.092C740.468 422.915 736.44 426.812 734.374 427.215C732.577 427.596 732.32 427.955 731.902 430.56L731.443 433.425L734.178 434.264C739.79 435.898 747.518 434.732 749.094 431.979C750.122 430.14 749.769 429.014 748.145 429.155C746.651 429.316 744.428 427.357 744.637 426.055C744.71 425.599 744.403 425.015 744.044 424.757C743.609 424.554 743.542 424.143 743.854 423.859C744.167 423.575 744.656 423.854 744.908 424.362C745.14 425 745.889 425.32 746.842 425.206C749.213 424.985 751.05 427.683 750.56 430.744C750.194 433.023 750.348 433.315 752.531 434.266C753.77 434.865 755.93 435.545 757.297 435.764C758.598 435.973 759.662 436.411 759.61 436.736C759.433 437.843 750.809 439.601 744.299 439.827C735.298 440.188 729.851 438.781 727.632 435.553C726.823 434.355 724.532 428.243 722.522 422.043C718.921 410.78 718.838 409.631 721.581 410.004C722.362 410.129 723.356 413.093 723.126 414.526C722.907 415.893 726.967 424.292 727.691 423.94C728.901 423.466 729.821 414.396 729.665 404.954C729.316 390.471 729.815 372.784 730.518 370.892C730.88 369.882 730.881 368.212 730.473 367.011C730.054 365.875 729.88 364.044 730.058 362.937C730.308 361.374 729.278 359.473 724.655 352.921C719.158 345.16 718.817 344.371 715.162 333.032C711.893 323.024 711.491 320.955 712.108 319.184C713.408 315.652 712.851 314.962 709.618 315.98L706.752 316.79L706.16 320.903C705.87 323.127 705.642 328.3 705.667 332.312C705.76 340.476 704.998 346.899 703.787 347.373C703.355 347.571 702.954 347.574 702.79 347.347C702.234 346.657 702.525 339.423 703.573 328.303C704.587 316.977 704.574 316.641 702.863 309.821C700.976 302.439 700.71 297.854 701.559 287.971L702.139 281.853L700.125 281.93C698.987 281.949 698.035 282.063 698.014 282.193C697.938 282.248 697.068 283.511 695.962 285.004C693.373 288.663 693.263 290.182 695.334 292.25C697.122 294.006 699.267 299.36 698.502 299.972C698.21 300.125 697.31 299.914 696.397 299.367C694.244 298.221 690.978 290.283 689.029 281.622L688.083 277.53L689.627 276.642L691.236 275.764L689.72 270.645C688.47 266.37 688.332 265.146 689.098 262.864C689.83 260.377 689.773 259.9 688.111 257.363L686.339 254.674L685.908 258.613C685.551 262.096 685.337 262.596 683.835 263.223C680.453 264.752 673.21 263.725 673.512 261.836C673.575 261.446 672.951 260.344 672.1 259.406C671.249 258.468 670.82 257.397 671.099 256.908C671.377 256.418 674.525 255.52 678.041 254.814C681.623 254.119 685.528 253.075 686.694 252.46C687.925 251.856 689.417 251.294 690.11 251.137C690.802 250.981 691.393 250.207 691.539 249.296C691.769 247.863 691.985 247.764 693.538 248.481C694.462 248.963 695.904 249.127 696.792 249.002C698.447 248.666 699.151 246.775 697.719 246.546C696.548 246.358 696.594 243.159 697.765 241.677C698.356 240.904 698.364 240.437 697.841 239.953C697.373 239.544 697.197 237.311 697.482 234.285L697.895 229.208L699.912 229.531C701.018 229.708 702.127 230.287 702.303 230.849C702.48 231.412 703.253 232.003 703.883 232.238C704.632 232.558 705.212 233.52 705.295 234.668C705.454 235.762 705.742 236.877 706.036 237.125C707.072 238.159 708.689 242.225 708.491 243.463C708.366 244.244 708.501 245.067 708.86 245.325C709.219 245.583 709.365 246.341 709.26 246.992C709.156 247.644 710.47 249.858 712.205 251.939C713.875 254.01 715.483 256.472 715.727 257.446C715.961 258.486 716.299 258.874 716.568 258.449C716.836 258.025 718.07 257.822 719.436 258.041L721.909 258.437L720.924 267.496C720.337 272.412 719.908 278.421 719.857 280.818C719.807 283.214 719.538 286.978 719.173 289.257C718.557 293.099 718.591 293.305 720.152 293.555C721.649 293.795 721.737 294.077 721.309 296.747C720.882 299.417 720.97 299.698 722.467 299.938C723.378 300.084 724.041 300.524 723.989 300.849C723.926 301.24 724.47 301.595 725.121 301.699C725.772 301.803 726.414 302.374 726.591 302.936C726.703 303.489 727.345 304.059 727.996 304.163C728.647 304.268 729.453 305.065 729.708 305.974C730.051 307.164 730.434 306.023 731.311 300.553L732.503 293.531L734.78 293.896C736.993 294.25 737.047 294.326 736.661 296.735C736.371 298.96 736.56 303.198 737.287 308.658C737.437 310.218 738.114 310.994 739.961 311.958C741.255 312.633 742.626 313.654 742.933 314.238C743.24 314.821 744.403 315.475 745.574 315.663L747.591 315.986L748.278 311.287C748.695 308.682 749.134 304.277 749.312 301.501C749.584 296.468 749.595 296.403 745.62 289.554C738.951 277.866 739.06 278.017 738.734 279.634C738.316 282.239 737.465 282.971 735.253 282.617L733.171 282.283L733.571 276.87C734.089 269.472 733.975 268.519 732.39 267.998C731.304 267.69 731.008 267.042 731.18 265.132C731.329 262.952 731.121 262.585 729.755 262.366C728.389 262.147 728.245 261.79 728.559 259.836C728.851 258.013 728.663 257.515 727.622 257.349C726.646 257.192 726.394 256.684 726.582 255.512C726.77 254.34 726.517 253.832 725.541 253.675C724.696 253.54 724.313 253.011 724.438 252.23C724.783 250.081 724.255 248.794 722.953 248.585C722.107 248.45 721.79 247.931 721.936 247.02C722.051 246.303 721.38 244.66 720.451 243.375C719.522 242.091 717.725 238.731 716.375 235.909C715.025 233.088 712.458 227.868 710.637 224.236C708.247 219.579 707.376 217.101 707.606 215.669C707.939 213.585 702.616 200.575 701.315 200.367C700.924 200.304 701.032 198.385 701.611 195.605C702.273 192.305 702.817 190.99 703.327 191.138C703.762 191.341 704.983 190.802 706.04 190.037C707.248 189.161 708.362 188.872 708.982 189.172C709.71 189.623 709.807 189.438 709.617 188.539C709.061 186.179 709.36 180.149 710.232 177.617L711.116 175.02L712.916 177.112C713.876 178.201 715.497 179.329 716.473 179.485C717.569 179.728 717.874 179.91 717.192 180.001C716.52 180.027 715.895 180.595 715.791 181.246C715.697 181.832 715.236 182.627 714.783 182.955C714.179 183.392 714.001 184.499 714.126 187.057C714.224 188.943 714.121 191.665 713.902 193.033C713.38 196.289 714.346 196.51 718.254 194.198C722.831 191.458 727.964 189.408 732.379 188.513C738.579 187.302 749.695 189.15 756.368 192.49C759.085 193.861 761.695 195.481 762.241 196.237C762.733 196.917 765.619 199.316 768.721 201.616C773.313 205.024 773.935 205.725 772.548 205.636C771.551 205.61 769.878 204.807 768.821 203.903C766.479 201.858 760.34 200.607 758.939 201.852C758.239 202.475 757.122 202.363 753.616 201.334C751.185 200.677 747.388 199.801 745.241 199.457C741.066 198.855 732.492 199.886 732.315 200.993C732.252 201.383 733.097 203.189 734.213 204.971L736.162 208.222L739.735 207.993C741.63 207.829 743.926 207.662 744.738 207.592C746.092 207.475 746.256 207.702 746.037 209.069C745.89 209.981 745.193 211.005 744.479 211.291C742.902 211.973 748.982 212.346 752.207 211.795C754.815 211.344 755.016 210.508 753.025 209.187C752.177 208.65 751.555 207.95 751.597 207.689C751.889 205.866 760.946 207.651 763.442 209.988C764.847 211.215 766.627 211.767 775.39 213.305L785.715 215.093L790.526 218.803C795.817 222.857 795.793 222.586 794.822 230.312L794.258 235.498L788.526 237.118C784.827 238.128 782.601 239.107 782.205 239.912C781.83 240.587 780.396 241.626 779.045 242.144C777.694 242.662 776.355 243.516 776.087 243.941C775.809 244.431 776.807 246.528 778.251 248.763L780.897 252.66L784.713 251.335C786.842 250.54 790.055 249.652 791.851 249.272C795.162 248.601 795.162 248.601 796.484 250.349C797.259 251.341 797.797 252.563 797.714 253.084C797.609 253.735 797.979 253.928 798.812 253.727C800.067 253.394 803.432 252.798 805.142 252.538C807.048 252.308 814.976 253.646 814.697 254.135C814.483 254.635 809.506 255.708 804.527 256.38C801.864 256.754 792.123 260.069 786.245 262.601C781.361 264.757 770.273 272.732 766.463 276.931C755.066 289.331 753.811 291.334 753.835 297.016C753.782 299.011 753.45 301.496 752.958 302.486C752.455 303.541 752.14 305.093 752.254 306.047C752.339 307.596 751.795 315.992 750.646 328.164C749.145 345.023 748.964 349.068 749.627 351.178C749.96 352.434 752.096 356.182 754.369 359.486C762.569 371.62 763.427 375.431 762.438 396.179C761.756 410.43 761.841 413.649 763.335 420.568C764.263 425.192 765.475 428.458 767.522 431.926C770.763 437.521 771.057 437.769 776.618 441.799C784.453 447.463 792.678 449.449 802.322 447.988C809.293 446.968 814.91 444.395 821.758 439.147C826.405 435.55 827.535 434.328 830.161 429.606C832.968 424.579 833.159 423.808 833.72 418.221C834.047 414.933 834.212 411.82 834.165 411.279C834.119 410.737 833.981 409.512 833.942 408.504C833.857 406.954 833.454 406.556 831.762 406.285C830.135 406.024 829.318 405.292 827.841 402.851C824.087 396.706 821.053 393.147 817.158 390.386C813.502 387.796 812.742 387.541 807.005 386.688C795.207 384.932 788.022 388.122 777.932 399.864C774.651 403.679 770.31 402.449 768.664 397.31C767.671 394.345 762.675 358.88 761.745 348.444C760.951 339.233 761.4 329.353 763.312 317.837C765.211 305.985 766.527 301.521 770.087 295.546C773.486 289.745 777.33 285.752 785.031 280.173C792.667 274.584 798.493 272.378 807.978 271.493C813.327 271.015 820.407 271.815 821.812 273.042C822.683 273.85 821.601 273.943 814.849 273.596C811.403 273.445 803.989 274.728 799.426 276.134C795.62 277.395 788.625 281.484 784.399 284.948C779.624 288.925 774.796 294.897 771.647 300.805C769.28 305.168 768.813 306.83 767.019 316.361C765.048 326.999 764.733 332.292 765.851 337.814C766.162 339.2 766.261 341.086 766.135 341.867C766 342.714 766.577 344.944 767.401 346.879C768.226 348.815 768.972 352.074 769.114 354.1C769.336 358.544 770.592 361.951 772.344 363.1C776.385 365.449 778.181 365.596 781.038 367.566C783.725 369.266 785.449 371.479 789.431 370.581C790.556 370.227 791.196 370.396 791.633 371C792.453 372.134 794.795 372.509 795.852 371.743C796.532 371.251 797.151 371.551 798.285 372.801C800.161 374.838 801.843 375.174 803.059 373.833C803.715 373.07 804.051 373.057 804.152 373.674C804.495 374.865 806.273 375.016 808.293 374.071C809.665 373.422 810.261 373.451 811.533 374.256C812.73 375.116 813.261 375.134 814.167 374.478C815.063 373.886 815.594 373.905 816.736 374.689C818.009 375.494 818.41 375.491 819.272 374.694C819.821 374.181 820.555 373.764 820.88 373.817C821.271 373.879 821.984 373.593 822.523 373.145C822.997 372.686 823.82 372.551 824.254 372.754C824.743 373.033 826.16 372.525 827.378 371.585C831.836 368.264 835.515 371.149 837.775 369.176C838.928 368.226 839.431 367.171 839.465 365.707C839.51 364.178 839.864 363.634 840.989 363.279C841.757 363.068 843.04 362.139 843.803 361.125C844.556 360.177 845.894 359.323 846.847 359.209C847.724 359.149 848.458 358.732 848.401 358.255C848.409 357.789 849.214 356.515 850.302 355.554C853.296 352.694 854.752 349.855 856.201 344.143C856.942 341.189 857.909 338.071 858.315 337.201L859.052 335.516L859.585 337.605C860.076 339.955 857.036 353.093 854.137 360.777C852.123 366.266 852.091 366.461 853.419 365.672C854.013 365.3 854.635 364.331 854.771 363.484C854.906 362.637 855.216 361.952 855.542 362.005C855.802 362.046 857.234 360.606 858.718 358.84C860.203 357.074 861.7 355.644 862.09 355.707C862.416 355.759 863.187 352.61 863.845 348.507C864.491 344.469 865.48 339.552 866.053 337.64C867.825 331.578 867.649 336.426 865.679 349.135C863.574 362.69 863.36 363.191 856.87 368.295C845.948 376.898 842.983 382.902 839.728 403.22C837.745 415.593 835.138 426.864 833.054 431.539C829.103 440.791 817.67 450.915 807.84 453.949C801.028 456.063 791.785 455.851 783.905 453.386ZM793.01 452.374C792.055 452.087 790.298 451.806 789.106 451.748C787.914 451.691 788.674 451.946 790.821 452.29C792.968 452.635 793.965 452.661 793.01 452.374ZM759.329 394.344C759.624 389.583 759.858 385.212 759.951 384.626C760.077 383.844 759.619 383.37 758.513 383.193C756.886 382.932 755.77 381.15 751.991 372.663C749.442 366.912 744.05 356.83 740.515 350.987C738.808 348.309 737.503 345.629 737.586 345.108C737.732 344.196 734.107 336.001 730.083 328.209L728.548 325.291L728.521 327.959C728.502 331.83 729.903 335.995 734.767 346.459C736.007 349.129 737.776 353.086 738.579 355.152C739.458 357.163 740.444 358.924 740.77 358.976C741.095 359.028 742.305 360.224 743.418 361.605C744.587 363.061 745.971 364.418 746.525 364.708C747.504 365.265 747.911 368.136 747.452 371.001C747.317 371.848 748.011 373.762 748.952 375.383C749.97 376.948 750.815 378.753 750.992 379.316C751.168 379.879 751.478 380.863 751.72 381.437C752.027 382.02 752.229 383.255 752.278 384.198C752.327 385.141 752.889 386.633 753.501 387.399C754.167 388.241 755.205 389.676 755.86 390.583C756.581 391.5 757.423 394.574 757.779 397.77C758.165 400.771 758.581 403.175 758.722 403.131C758.807 403.011 759.108 399.051 759.329 394.344ZM746.031 335.306C746.363 331.152 746.147 329.581 745.005 327.127C743.874 324.608 743.177 323.962 741.55 323.701C739.793 323.42 739.567 323.584 739.608 324.993C739.659 326.337 744.977 340.214 745.488 340.362C745.618 340.383 745.853 338.083 746.031 335.306ZM708.951 311.398C709.118 310.356 707.914 308.293 707.133 308.167C705.962 307.98 705.909 308.305 706.484 310.134C706.957 311.345 708.805 312.309 708.951 311.398ZM711.855 306.186C710.656 303.255 710.273 304.396 711.378 307.913C711.799 309.45 712.226 310.119 712.45 309.554C712.674 308.989 712.383 307.472 711.855 306.186ZM705.323 267.401C705.458 266.554 700.36 251.31 699.782 250.75C698.606 249.76 695.131 250.205 691.252 251.921C691.111 251.966 691.954 255.04 693.157 258.772C695.146 265.103 695.409 265.545 697.098 265.415C698.041 265.366 698.985 265.718 699.193 266.085C699.524 266.939 705.218 268.052 705.323 267.401ZM771.511 267.921L774.627 265.548L772.675 265.236C770.918 264.954 770.645 264.576 770.349 262.258C770.113 260.817 770.09 258.877 770.247 257.9C770.414 256.858 770.128 256.144 769.607 256.061C767.59 255.738 764.962 252.979 764.864 251.093C764.835 250.02 764.341 248.939 763.787 248.649C763.222 248.425 762.384 247.824 761.916 247.414C761.448 247.005 760.425 246.307 759.707 245.791C758.793 245.244 758.398 244.379 758.575 243.272C758.732 242.296 758.412 241.376 757.803 241.011C756.021 240.058 754.72 238.179 754.918 236.942C755.033 236.226 754.18 234.887 752.959 233.756C751.728 232.691 749.863 230.588 748.835 229.088C747.589 227.285 746.348 226.285 745.177 226.097C743.81 225.878 743.407 225.48 743.564 224.503C743.783 223.135 742.224 221.616 740.142 221.283C739.036 221.106 738.838 220.673 739.141 218.785C739.485 216.636 739.376 216.485 737.229 216.141C735.472 215.859 734.993 215.515 735.139 214.603C735.243 213.952 733.742 211.24 731.765 208.586C729.788 205.931 728.266 203.35 728.329 202.959C728.485 201.982 722.484 200.286 720.341 200.744C717.442 201.348 717.784 204.208 721.073 207.006C721.89 207.738 722.887 209.434 723.274 210.765C723.672 212.031 725.24 215.155 726.772 217.671C728.315 220.122 731.052 224.702 732.901 227.737C734.74 230.837 736.468 233.385 736.858 233.447C737.183 233.499 737.371 233.997 737.287 234.518C737.12 235.56 740.954 242.453 744.375 247.342C749.261 254.337 761.428 273.786 761.706 274.966C761.919 276.136 762.351 275.938 765.184 273.253C766.983 271.604 769.839 269.189 771.511 267.921ZM709.789 195.379C711.132 193.658 711.281 193.147 710.701 192.186C710.066 191.149 709.861 191.183 708.231 192.191C707.249 192.902 706.379 194.165 706.223 195.142C705.691 198.463 707.349 198.529 709.789 195.379Z" fill="#656A6C"/>
<path d="M787.292 443.91C785.447 443.347 783.588 442.448 783.141 441.909C782.683 441.435 780.495 439.682 778.145 438.103C773.042 434.547 770.037 430.392 768.038 424.127C766.402 418.922 765.947 410.099 767.231 409.17C768.288 408.404 768.642 409.529 768.869 414.775C769.235 423.317 772.367 430.431 777.529 434.865C781.94 438.577 782.885 437.26 779.636 432.13C778.41 430.197 776.829 426.738 776.067 424.412C774.655 420.311 774.653 419.91 775.968 411.705C777.314 403.304 777.324 403.239 780.194 399.491C787.61 389.859 797.976 385.976 808.158 389.077C811.848 390.203 813.664 391.362 811.062 390.945C808.849 390.591 799.658 391.723 796.631 392.707C790.089 394.798 784.189 400.799 781.622 408.069C779.108 415.014 780.679 425.618 785.045 430.86C787.61 434.009 788.683 433.981 786.659 430.784C785.761 429.305 785.038 427.986 785.059 427.856C785.08 427.726 787.026 428.906 789.431 430.56C793.032 433.075 794.531 433.715 798.045 434.278C807.165 435.673 814.473 431.3 818.964 421.6C820.472 418.435 820.566 417.849 820.096 413.7C819.486 407.925 817.89 403.728 814.614 399.596C813.173 397.762 812.221 396.207 812.372 396.098C812.976 395.66 817.246 399.417 819.616 402.535C820.883 404.208 822.43 407.461 823.117 409.842C824.136 413.479 824.177 414.888 823.358 419.165C822.594 423.518 822.049 424.833 819.815 427.948C816.904 431.957 810.608 437.093 807.299 438.166C804.759 439.028 805.055 439.677 807.817 439.518C811.185 439.323 817.061 434.721 820.712 429.428C823.848 424.854 823.965 424.539 825.082 417.571C826.039 411.179 826.032 409.975 825.078 406.349C823.705 401.587 824.606 401.798 826.109 406.581C828.373 413.69 826.988 422.752 822.365 430.361C820.446 433.593 820.339 433.843 821.677 432.989C823.393 431.861 826.947 426.753 828.099 423.732C829.506 419.95 830.597 419.39 829.632 422.909C827.362 430.827 816.453 441.436 807.748 444.115C800.178 446.376 795.107 446.365 787.292 443.91Z" fill="#656A6C"/>
<path d="M796.352 364.877C780.802 359.045 771.191 339.472 774.269 320.261C776.033 309.256 781.861 300.371 792.367 292.703C796.897 289.422 799.672 287.929 803.251 286.833C807.729 285.547 808.606 285.487 814.657 286.456C821.229 287.51 823.41 288.059 829.622 290.524C833.575 292.093 833.965 293.825 830.014 292.658C826.009 291.415 810.167 292.817 806.257 294.729C805.242 295.234 804.107 295.653 803.717 295.591C803.131 295.497 794.36 301.505 792.54 303.284C790.009 305.751 785.449 312.968 783.763 317.24C779.73 327.414 781.305 342.161 787.229 350.591C789.895 354.358 793.413 357.393 795.43 357.716C796.211 357.841 795.904 357.257 794.455 355.89C792.189 353.79 787.472 346.155 787.671 344.917C787.733 344.527 788.506 345.118 789.326 346.251C791.586 349.218 797.368 353.952 801.368 356.062C807.4 359.233 814.618 359.588 822.024 357.101C831.625 353.831 837.78 347.069 841.556 335.584C841.991 334.118 842.733 333.235 843.48 333.154C844.563 333.061 844.573 332.996 843.543 332.764C842.772 332.573 842.442 331.719 842.443 330.049C842.497 324.714 841.64 319.234 840.285 315.61C838.787 311.63 832.993 303.221 831.081 302.246C830.027 301.743 829.744 299.761 830.785 299.928C831.045 299.97 833.025 301.356 835.17 302.968C842.56 308.494 848.175 319.68 848.385 329.198C848.534 335.768 845.527 343.702 840.614 349.794C838.452 352.453 834.737 356.066 832.375 357.892C829.787 359.881 828.431 361.267 828.92 361.546C829.714 362.007 829.136 363.117 828.094 362.95C827.704 362.887 827.691 362.551 828.014 362.202C828.347 361.788 828.183 361.561 827.632 361.673C827.08 361.785 826.509 362.429 826.265 363.124C825.754 364.645 817.741 367.169 812.77 367.374C807.593 367.613 800.761 366.518 796.352 364.877ZM810.767 364.047C810.275 363.367 809.885 363.305 809.205 363.797C808.526 364.289 808.624 364.506 809.861 364.704C811.097 364.902 811.259 364.727 810.767 364.047ZM778.568 325.091C780.733 312.413 784.835 304.721 793.445 297.218C796.861 294.225 797.129 293.8 795.239 294.767C791.761 296.48 785.377 303.005 782.319 307.925C778.017 314.783 776.724 319.519 776.857 327.021C776.9 330.501 777.037 333.395 777.037 333.395C777.102 333.405 777.827 329.714 778.568 325.091Z" fill="#656A6C"/>
<path d="M719.464 333.254C719.282 331.889 719.273 330.284 719.497 329.719C719.796 329.099 720.04 330.073 720.139 331.959C720.434 335.947 720.048 336.687 719.464 333.254Z" fill="#656A6C"/>
<path d="M844.464 348.674C844.484 348.544 845.362 346.814 846.487 344.791C847.558 342.691 849.007 338.649 849.744 335.294C851.895 325.619 851.227 317.297 847.489 308.549L845.554 303.964L847.654 307.106C853.57 316.002 854.546 328.649 850.281 339.855C848.799 343.692 845.538 349.047 844.758 348.922C844.562 348.89 844.453 348.739 844.464 348.674Z" fill="#656A6C"/>
<path d="M860.074 307.894C859.729 306.302 859.547 304.937 859.708 304.763C859.925 304.664 860.333 305.865 860.678 307.456C861.024 309.048 861.206 310.413 861.044 310.588C860.828 310.686 860.42 309.486 860.074 307.894Z" fill="#656A6C"/>
<path d="M809.908 296.516C811.116 295.641 811.733 295.539 812.506 296.131C813.388 296.873 813.227 297.048 811.301 297.407C808.216 297.915 808.031 297.818 809.908 296.516Z" fill="#656A6C"/>
<path d="M721.128 279.552C721.069 278.674 721.364 275.582 721.833 272.652L722.699 267.247L724.912 267.601C727.059 267.945 727.049 268.01 726.961 271.469C726.864 273.324 726.559 276.481 726.256 278.37L725.714 281.756L723.501 281.401C721.81 281.13 721.276 280.711 721.128 279.552Z" fill="#656A6C"/>
<path d="M846.512 288.822C845.683 287.754 845.048 286.717 845.079 286.522C845.173 285.936 847.231 287.668 848.019 288.997C849.18 290.92 848.063 290.807 846.512 288.822Z" fill="#656A6C"/>
<path d="M848.556 266.908C844.561 263.93 831.594 256.976 827.849 255.775C824.418 254.691 823.055 253.204 823.41 250.989C823.9 247.929 827.427 248.828 834.609 253.986C837.242 255.878 842.022 259.783 845.226 262.701C853.102 269.774 854.041 270.993 848.556 266.908Z" fill="#656A6C"/>
<path d="M785.236 244.739C784.346 242.793 783.871 241.181 784.022 241.071C784.636 240.569 788.179 245.945 787.992 247.118C787.679 249.071 786.796 248.329 785.236 244.739Z" fill="#656A6C"/>
<path d="M807.81 238.805C807.699 238.253 807.449 236.476 807.374 234.861C807.276 232.975 806.66 231.407 805.635 230.308C804.719 229.359 802.382 226.447 800.46 223.868C797.642 220.21 797.039 218.978 797.586 218.064C798.219 217.03 798.414 217.061 799.368 219.017C801.561 223.243 807.917 231.475 809.023 231.652C810.585 231.902 811.131 232.658 810.269 233.455C809.881 233.793 809.22 235.424 808.839 236.966C808.427 238.703 808.042 239.443 807.81 238.805Z" fill="#656A6C"/>
<path d="M725.032 179.387C724.558 178.176 725.1 178.129 731.258 178.849C736.7 179.453 736.896 179.485 734.363 179.88C730.261 180.492 725.427 180.252 725.032 179.387Z" fill="#656A6C"/>
<path d="M727.875 176.637C727.006 176.23 726.373 175.595 726.512 175.149C726.65 174.704 726.829 173.998 726.978 173.487C727.327 172.141 733.178 172.277 733.771 173.574C734.497 175.293 734.036 176.088 731.722 176.786C730.522 177.194 729.473 177.494 729.483 177.429C729.429 177.353 728.744 177.043 727.875 176.637Z" fill="#656A6C"/>
<path d="M742.084 177.511C741.709 176.516 742.592 175.588 743.763 175.776C744.804 175.943 744.783 176.073 744.033 177.422C743.39 178.522 742.513 178.581 742.084 177.511Z" fill="#656A6C"/>
<path d="M755.477 179.724C754.954 179.239 754.941 178.903 755.504 178.726C755.936 178.528 756.212 177.637 756.184 176.564L756.01 174.733L758.063 177.333C759.166 178.779 760.019 180.117 759.988 180.313C759.883 180.964 756.294 180.456 755.477 179.724Z" fill="#656A6C"/>
<path d="M781.458 451.993C773.477 448.91 765.949 442.16 762.57 435.34C759.925 429.773 759.348 427.544 758.279 417.554C756.992 405.592 754.808 393.82 753.551 392.083C752.95 391.252 751.902 389.882 751.236 389.04C750.624 388.274 750.063 386.782 750.013 385.839C749.964 384.896 749.762 383.661 749.455 383.077C749.213 382.504 748.859 381.379 748.649 380.611C748.085 378.717 744.63 373.621 743.784 373.486C743.394 373.423 743.162 372.785 743.277 372.069C743.392 371.352 743.941 370.839 744.462 370.923C745.242 371.048 745.446 370.613 745.329 369.258C745.109 366.885 744.932 366.322 744.151 366.197C743.826 366.145 743.451 366.82 743.305 367.731C743.158 368.643 742.783 369.318 742.458 369.266C741.547 369.12 741.462 367.57 742.246 366.426C742.826 365.718 742.496 364.863 741.044 363.095C739.92 361.779 738.765 360.659 738.505 360.617C738.179 360.565 737.194 358.804 736.315 356.793C735.511 354.727 733.742 350.77 732.502 348.1C727.495 337.279 726.336 333.687 726.197 328.722C726.071 324.093 727.041 318.037 727.822 318.162C728.343 318.245 731.336 324.135 738.109 338.512C739.163 340.685 739.935 342.946 739.851 343.467C739.768 343.988 741.074 346.668 742.77 349.411C744.411 352.079 746.898 356.552 748.323 359.318C749.694 362.009 751.491 365.37 752.345 366.709C753.133 368.037 754.418 370.848 755.167 372.838C755.905 374.894 757.255 377.715 758.163 379.129L759.75 381.721L759.777 379.054C759.742 375.108 758.351 370.877 755.791 366.86C753.395 363.07 752.131 360.129 753.042 360.275C753.367 360.327 755.038 362.398 756.71 364.87C762.121 372.75 762.791 377.734 761.149 399.646C760.67 406.382 760.345 413.41 760.453 415.23C760.699 419.945 762.378 426.96 764.29 431.274C772.464 449.817 800.195 456.264 819.047 443.989C823.298 441.197 829.19 435.662 829.42 434.23C829.472 433.904 830.235 432.891 831.128 431.898L832.808 430.164L832.039 432.044C830.909 434.936 826.943 440.111 823.045 444.028C819.329 447.641 812.474 451.686 806.851 453.456C799.672 455.779 789.56 455.161 781.458 451.993Z" fill="#CFD5D6"/>
<path d="M724.334 427.811C723.572 425.485 723.138 423.612 723.334 423.643C723.464 423.664 724.223 425.589 724.985 427.915C725.747 430.241 726.181 432.114 725.985 432.083C725.855 432.062 725.096 430.137 724.334 427.811Z" fill="#CFD5D6"/>
<path d="M728.556 428.955C728.075 426.54 728.166 425.553 729.023 423.954C730.341 421.56 730.611 417.796 730.368 404.732C730.292 399.377 730.188 391.278 730.257 386.681C730.262 382.073 730.193 376.251 730.145 373.638C729.646 363.005 729.975 361.788 732.173 365.146C733.31 366.798 733.38 367.611 733.277 386.163C733.216 397.374 731.673 423.243 730.601 430.351C730.184 432.956 729.281 432.344 728.556 428.955Z" fill="#CFD5D6"/>
<path d="M783.662 433.243C782.171 432.136 780.49 430.13 779.754 428.476C773.868 415.643 774.658 406.552 782.415 397.71C788.203 391.156 794.675 388.253 802.468 388.767C805.708 388.952 804.924 390.095 801.158 390.694C797.121 391.316 792.138 393.256 789.852 395.027C786.65 397.52 782.556 403.076 781.095 406.782C777.757 415.532 779.05 424.956 784.508 431.709C787.685 435.624 787.503 435.929 783.662 433.243Z" fill="#CFD5D6"/>
<path d="M793.143 435.296C791.002 434.085 787.265 430.748 787.359 430.162C787.38 430.031 788.533 430.751 789.969 431.782C793.594 434.567 801.608 435.784 806.041 434.357C810.701 432.766 814.421 429.956 817.093 425.776C819.208 422.574 819.57 421.564 820.082 416.703C820.531 412.233 820.412 410.477 819.307 406.961C817.729 402.233 818.234 401.579 820.533 405.554C824.102 411.603 823.339 421.366 818.805 427.586C815.969 431.54 811.009 435.421 807.485 436.593C803.895 437.754 796.198 437.055 793.143 435.296Z" fill="#CFD5D6"/>
<path d="M771.479 430.556C768.636 426.226 766.938 419.743 767.029 413.345C767.027 411.274 767.207 410.568 767.675 410.977C768.024 411.3 768.214 412.199 768.078 413.046C767.692 415.455 769.165 422.504 771.103 427.49C772.083 430.118 772.876 432.249 772.746 432.228C772.681 432.218 772.069 431.452 771.479 430.556Z" fill="#CFD5D6"/>
<path d="M770.053 399.469C768.916 397.818 766.265 380.628 763.48 357.606C762.248 347.389 761.89 335.042 762.707 330.364C763.583 324.894 764.105 327.048 763.829 335.019C763.708 338.272 764.042 344.938 764.527 349.825C765.868 363.532 770.801 396.049 771.699 397.529C772.672 398.954 774.397 399.431 776.516 398.702C778.635 397.972 778.695 398.85 776.581 400.382C774.089 402.187 771.617 401.79 770.053 399.469Z" fill="#CFD5D6"/>
<path d="M829.652 404.878C828.988 404.438 826.106 399.1 825.18 396.547C824.938 395.974 825.963 397.073 827.439 399.113C830.256 402.771 831.419 403.425 833.895 402.552C835.733 401.912 836.397 400.682 840.558 390.128C843.96 381.389 846.315 376.69 846.916 377.521C847.08 377.747 846.835 378.443 846.405 379.042C845.91 379.631 843.615 385.207 841.356 391.391C839.032 397.564 836.748 403.076 836.307 403.74C834.802 405.637 831.848 406.165 829.652 404.878Z" fill="#CFD5D6"/>
<path d="M796.855 385.062C797.665 384.591 798.909 384.322 799.625 384.437C801.446 384.729 799.968 385.628 797.477 385.763C795.527 385.851 795.527 385.851 796.855 385.062Z" fill="#CFD5D6"/>
<path d="M847.994 376.625C848.234 375.127 852.119 370.874 856.087 367.769C858.524 365.889 860.937 363.737 861.518 363.029C862.044 362.245 862.637 361.872 862.801 362.099C863.238 362.703 860.676 365.365 856.255 368.798C854.055 370.449 851.308 373.015 850.137 374.497C848.9 375.969 847.952 376.885 847.994 376.625Z" fill="#CFD5D6"/>
<path d="M721.978 349.219C720.03 345.968 716.161 335.129 716.775 334.626C717.001 334.462 717.66 335.77 718.19 337.458C718.731 339.081 720.205 342.79 721.5 345.536C722.72 348.336 723.961 351.006 724.148 351.504C724.863 353.288 723.838 352.189 721.978 349.219Z" fill="#CFD5D6"/>
<path d="M788.189 357.09C785.816 355.24 783.688 352.695 781.477 349.001C779.682 346.042 778.009 343.57 777.814 343.538C777.554 343.497 776.927 341.994 776.417 340.175C775.853 338.282 775.3 336.323 775.068 335.684C774.449 333.715 774.398 323.621 774.962 320.105C776.3 312.17 781.1 303.455 787.648 297.157C791.041 293.894 796.665 290.453 798.226 290.703C798.551 290.755 799.265 290.469 799.728 290.076C800.202 289.617 802.951 289.123 805.788 288.909C808.68 288.772 811.798 288.47 812.751 288.355C815.328 288.1 819.516 289.038 819.64 289.927C819.762 290.414 818.216 290.901 815.834 291.187C804.121 292.65 795.105 297.684 788.647 306.334C784.134 312.424 781.891 317.675 780.606 325.284C779.466 331.981 779.642 334.213 781.823 341.843C783.284 346.886 787.883 354.837 790.626 356.879C792.117 357.986 793.126 360.018 792.085 359.852C791.825 359.81 790.094 358.531 788.189 357.09Z" fill="#CFD5D6"/>
<path d="M802.278 359.548C798.582 357.62 794.325 354.199 792.936 352.04C791.547 349.88 792.047 350.094 796.759 353.587C802.005 357.5 806.62 359.108 812.361 359.093C822.903 359.112 832.447 353.695 838.328 344.485C840.56 340.969 840.867 339.882 842.004 332.784C843.327 324.113 842.961 320.982 839.869 313.206C837.867 308.21 839.036 307.996 842.077 312.758C846.858 320.404 847.778 330.904 844.477 340.261C841.676 348.161 832.321 357.816 824.636 360.793C818.724 363.118 807.876 362.515 802.278 359.548Z" fill="#CFD5D6"/>
<path d="M703.568 341.66C703.766 340.423 703.98 339.923 704.071 340.606C704.107 341.212 703.94 342.254 703.705 342.885C703.416 343.44 703.37 342.898 703.568 341.66Z" fill="#CFD5D6"/>
<path d="M745.592 346.791C743.706 343.149 738.442 331.018 737.46 327.988C736.885 326.16 736.922 325.097 737.943 322.055C738.678 319.968 739.22 318.252 739.23 318.186C740.523 310.119 730.983 317.261 729.711 311.785C729.229 309.715 724.844 302.755 723.069 304.509C717.887 309.218 716.46 293.84 716.73 292.005C717.189 289.14 717.542 284.855 717.593 282.458C717.643 280.062 718.072 274.053 718.659 269.137C719.878 257.918 715.296 265.871 713.353 258.936C713.163 258.037 711.61 255.651 709.94 253.58C708.205 251.499 706.891 249.284 706.995 248.633C707.214 247.266 706 246.518 706.226 245.103C706.424 243.866 705.093 240.514 703.519 238.258C702.654 237.062 703.052 236.435 702.5 236.038C700.996 234.772 698.828 233.937 698.097 232.112C697.954 231.755 698.435 225.42 699.289 218.01C700.067 210.653 700.874 202.701 701.055 200.325C701.251 197.017 701.496 196.322 701.881 197.252C702.167 197.965 702.799 198.601 703.32 198.684C704.816 198.924 710.478 212.322 709.959 214.309C709.62 215.591 710.458 217.862 712.838 222.585C714.723 226.227 717.291 231.447 718.64 234.268C719.99 237.09 721.788 240.45 722.716 241.734C723.645 243.019 724.316 244.662 724.191 245.444C724.014 246.551 724.243 246.788 725.336 246.629C726.494 246.481 726.702 246.848 726.662 249.18C726.675 251.185 726.917 251.758 727.586 251.331C728.762 250.652 729.233 251.462 728.878 253.676C728.618 255.304 728.781 255.53 729.94 255.382C731.174 255.179 731.262 255.46 730.886 257.805C730.479 260.344 731.049 261.371 732.19 260.084C733.179 258.907 733.806 260.41 733.399 262.95C732.992 265.489 733.619 266.992 734.608 265.815C735.598 264.638 736.199 265.469 736.182 268.071C736.192 269.676 736.546 270.801 737.066 270.884C738.302 271.083 751.187 292.717 751.789 295.619C751.935 296.377 751.595 300.998 750.953 305.838C750.376 310.688 750 314.741 750 316.741C750 318.741 749.328 326.469 748.387 334.348C748.112 337.31 747.772 341.931 747.67 344.653C747.633 347.385 747.473 349.631 747.397 349.685C747.246 349.795 746.458 348.466 745.592 346.791Z" fill="#CFD5D6"/>
<path d="M703.931 330.23C704.443 327.039 704.747 327.222 704.79 330.702C704.81 332.241 704.599 333.143 704.144 333.07C703.819 333.018 703.691 331.728 703.931 330.23Z" fill="#CFD5D6"/>
<path d="M715.751 330.187C715.411 327.728 715.434 320.919 715.716 319.161C716.052 317.478 716.128 317.423 716.742 318.59C717.465 319.909 717.008 330.255 716.253 330.802C716.027 330.966 715.798 330.729 715.751 330.187Z" fill="#CFD5D6"/>
<path d="M704.903 313.755C704.495 312.554 703.949 310.129 703.754 308.428C703.38 305.763 703.485 305.112 704.592 303.619C705.44 302.486 705.865 301.085 705.769 299.6C705.742 296.857 705.188 296.568 703.487 298.433C702.347 299.719 702.282 299.709 701.983 296.989C701.822 295.494 701.886 291.764 702.181 288.672C702.67 283.541 702.787 283.225 703.521 284.478C703.937 285.213 704.647 287.865 705.062 290.269C705.626 293.833 705.912 294.546 706.797 294.02C707.607 293.549 707.846 293.721 708.025 294.685C708.106 295.432 708.373 296.677 708.639 297.521C708.938 298.571 708.771 299.613 708.086 300.973C706.778 303.301 707.381 306.203 709.203 306.495C710.634 306.725 711.906 310.869 711.215 313.096C710.918 314.117 710.41 314.37 709 314.01C707.904 313.768 707.212 313.924 707.118 314.51C706.825 316.334 705.555 315.93 704.903 313.755Z" fill="#CFD5D6"/>
<path d="M764.505 314.555C765.893 305.894 767.524 301.547 771.912 294.569C778.79 283.715 791.423 274.852 802.592 273.035C808.079 272.111 807.912 273.153 802.245 274.783C792.804 277.478 783.892 283.531 776.416 292.285C771.544 298.117 766.733 308.567 765.299 316.686C764.829 319.617 764.118 321.974 763.857 321.932C763.597 321.89 763.869 318.528 764.505 314.555Z" fill="#CFD5D6"/>
<path d="M690.01 282.581C689.516 279.83 689.382 277.337 689.684 277.118C690.061 276.845 690.496 277.048 690.738 277.621C691.419 279.2 692.616 287.139 692.239 287.413C691.257 288.124 690.872 287.194 690.01 282.581Z" fill="#CFD5D6"/>
<path d="M698.189 280.685C697.991 280.253 698.684 280.097 699.725 280.263C701.156 280.493 701.331 280.654 700.466 281.05C699.105 281.633 698.584 281.55 698.189 280.685Z" fill="#CFD5D6"/>
<path d="M756.736 284.322C756.796 283.53 757.601 282.257 758.539 281.405C760.025 280.04 760.153 279.66 759.62 277.571C759.197 275.633 748.297 257.856 742.11 248.983C738.689 244.093 734.855 237.201 735.022 236.159C735.106 235.638 734.918 235.14 734.593 235.088C734.203 235.025 732.475 232.478 730.636 229.378C728.787 226.343 726.05 221.763 724.507 219.312C722.975 216.795 721.407 213.672 721.019 212.341C720.632 211.01 719.451 209.218 718.395 208.314C716.326 206.646 715.351 203.15 716.159 200.608C716.625 198.946 719.89 197.733 722.407 198.27C730.618 199.919 730.803 200.016 730.636 201.058C730.552 201.579 732.053 204.29 734.03 206.945C736.008 209.6 737.498 212.376 737.383 213.093C737.216 214.135 737.521 214.317 739.785 214.346L742.375 214.427L741.643 216.915C740.952 219.142 741.041 219.423 742.212 219.611C744.685 220.007 746.558 221.643 746.014 222.958C745.597 223.893 745.815 224.196 747.312 224.435C748.613 224.644 749.8 225.569 751.101 227.447C752.128 228.948 753.994 231.05 755.224 232.115C756.445 233.246 757.298 234.585 757.183 235.301C756.985 236.539 758.286 238.417 760.068 239.37C760.677 239.735 760.997 240.655 760.841 241.632C760.663 242.739 761.059 243.603 761.972 244.151C762.69 244.666 763.713 245.365 764.181 245.774C764.65 246.183 765.488 246.784 766.052 247.009C766.607 247.298 767.101 248.379 767.129 249.452C767.217 251.403 770.149 254.344 771.729 254.063C772.151 253.93 772.976 254.196 773.434 254.67C774.077 255.241 774.058 255.772 773.308 257.121C772.269 259.025 772.468 263.198 773.639 263.386C774.029 263.449 775.013 263.139 775.748 262.722C776.482 262.305 777.369 262.18 777.663 262.428C777.957 262.675 778.975 262.571 779.915 262.121C781.86 261.23 783.062 261.222 782.916 262.134C782.853 262.525 780.083 264.819 776.74 267.356C771.64 271.281 760.811 280.968 757.486 284.643C756.593 285.635 756.528 285.625 756.736 284.322Z" fill="#CFD5D6"/>
<path d="M690.238 270.327C689.846 268.194 689.633 265.355 689.853 263.987C690.406 260.536 689.873 258.447 687.667 255.555L685.733 253.041L687.418 252.109C688.368 251.593 689.363 251.218 689.688 251.27C690.013 251.322 691.412 255.086 692.816 259.653C695.094 267.098 695.307 268.267 694.551 270.484C693.623 272.94 692.452 274.422 691.541 274.276C691.28 274.235 690.695 272.471 690.238 270.327Z" fill="#CFD5D6"/>
<path d="M696.081 272.599C696.51 272 697 270.609 697.243 269.513C697.61 267.635 697.751 267.59 700.192 268.182C702.503 268.753 703.549 269.722 703.416 270.97C703.301 271.686 699.357 273.392 697.322 273.6C695.633 273.73 695.513 273.644 696.081 272.599Z" fill="#CFD5D6"/>
<path d="M679.431 262.384C677.596 261.756 677.204 261.292 677.324 259.709C677.369 258.18 677.616 257.885 678.41 258.346C678.954 258.701 679.571 258.599 679.86 258.044C680.203 257.565 680.636 257.367 680.995 257.625C681.289 257.873 681.981 257.716 682.465 257.193C683.812 255.872 684.805 257.167 684.552 259.998C684.392 262.244 683.21 263.791 681.95 263.322C681.766 263.226 680.626 262.843 679.431 262.384Z" fill="#CFD5D6"/>
<path d="M691.445 249.882C691.612 248.84 692.695 248.746 693.069 249.741C693.213 250.098 692.89 250.447 692.327 250.624C691.71 250.726 691.351 250.468 691.445 249.882Z" fill="#CFD5D6"/>
<path d="M785.17 260.558C785.223 260.233 784.624 259.803 783.843 259.678C783.063 259.553 782.703 259.295 783.005 259.076C783.318 258.792 784.195 258.732 784.976 258.857C785.887 259.003 786.556 258.576 786.983 257.576C787.324 256.696 787.97 255.998 788.457 255.875C788.933 255.818 789.087 256.11 788.722 256.719C787.907 258.058 789.034 258.105 792.97 256.866C796.916 255.561 801.232 254.449 801.753 254.532C802.924 254.72 801.62 255.78 799.738 256.28C798.493 256.548 794.818 257.83 791.618 259.053C785.425 261.468 785.004 261.6 785.17 260.558Z" fill="#CFD5D6"/>
<path d="M757.603 211.858C757.676 211.402 757.171 210.386 756.505 209.544L755.217 208.002L757.461 208.161C759.91 208.287 762.802 209.818 763.743 211.439C764.521 212.833 764.38 212.877 760.663 212.749C758.334 212.709 757.509 212.444 757.603 211.858Z" fill="#CFD5D6"/>
<path d="M712.124 192.882C710.665 191.579 709.782 185.426 710.429 181.389C710.794 179.11 711.357 177.263 711.682 177.315C712.008 177.367 712.838 178.435 713.441 179.667C714.242 181.332 714.333 182.014 713.685 182.311C712.971 182.598 712.867 183.249 713.14 185.296C714.025 191.85 713.704 194.27 712.124 192.882Z" fill="#CFD5D6"/>
<path d="M761.223 199.68L755.492 197.96L759.935 198.138C763.706 198.342 764.672 198.563 766.631 200.079C769.189 202.025 769.124 202.015 761.223 199.68Z" fill="#CFD5D6"/>
</g>
<path d="M647.183 286.174C655.983 270.974 669.849 272.841 675.683 275.674C691.5 283.357 698 315.741 695 335.741C691.421 359.604 659.482 358.028 650.683 351.674C630 336.741 636.183 305.174 647.183 286.174Z" fill="#FF8400"/>
<path d="M672.183 362.174C681.783 346.974 704.349 347.174 714.183 351.674C728.532 358.241 732 369.241 732 380.741C732 396.313 717.183 413.174 705.183 414.174C693.183 415.174 680.183 406.674 675.683 401.174C671.183 395.674 660.182 381.174 672.183 362.174Z" fill="#FF8400"/>
<path d="M647.183 286.174C655.983 270.974 669.849 272.841 675.683 275.674C691.5 283.357 698 315.741 695 335.741C691.421 359.604 659.482 358.028 650.683 351.674C630 336.741 636.183 305.174 647.183 286.174Z" stroke="#FFA730" stroke-width="11"/>
<path d="M672.183 362.174C681.783 346.974 704.349 347.174 714.183 351.674C728.532 358.241 732 369.241 732 380.741C732 396.313 717.183 413.174 705.183 414.174C693.183 415.174 680.183 406.674 675.683 401.174C671.183 395.674 660.182 381.174 672.183 362.174Z" stroke="#FFA730" stroke-width="11"/>
<defs>
<filter id="filter0_d_87_2" x="304.106" y="49.9649" width="410.153" height="311.303" filterUnits="userSpaceOnUse" color-interpolation-filters="sRGB">
<feFlood flood-opacity="0" result="BackgroundImageFix"/>
<feColorMatrix in="SourceAlpha" type="matrix" values="0 0 0 0 0 0 0 0 0 0 0 0 0 0 0 0 0 0 127 0" result="hardAlpha"/>
<feOffset dy="4"/>
<feGaussianBlur stdDeviation="2"/>
<feComposite in2="hardAlpha" operator="out"/>
<feColorMatrix type="matrix" values="0 0 0 0 0 0 0 0 0 0 0 0 0 0 0 0 0 0 0.25 0"/>
<feBlend mode="normal" in2="BackgroundImageFix" result="effect1_dropShadow_87_2"/>
<feBlend mode="normal" in="SourceGraphic" in2="effect1_dropShadow_87_2" result="shape"/>
</filter>
<clipPath id="clip0_87_2">
<rect width="400" height="461" fill="white" transform="translate(562.938 114.741) rotate(9.10342)"/>
</clipPath>
</defs>
</svg>
