<svg width="321" height="278" viewBox="0 0 321 278" fill="none" xmlns="http://www.w3.org/2000/svg">
<path d="M276.501 43.2901C284.901 66.4901 285.001 89.2901 284.001 97.7901L194.001 69.2901C196.334 58.4567 204.301 32.8901 217.501 17.2901C234.001 -2.20992 240.001 -0.209923 247.001 1.29008C254.001 2.79008 266.001 14.2901 276.501 43.2901Z" fill="#4177FF"/>
<path d="M40.0008 42.8951C31.6008 66.0951 31.5008 88.8951 32.5008 97.3951L122.501 68.8951C120.167 58.0617 112.201 32.4951 99.0008 16.8951C82.5008 -2.60494 76.5008 -0.604943 69.5008 0.895057C62.5008 2.39506 50.5008 13.8951 40.0008 42.8951Z" fill="#4177FF"/>
<g filter="url(#filter0_d_44_97)">
<path d="M159.751 270C32.7959 270 1.0044 224.58 11.3035 158.755C24.3969 75.0706 78.2916 43 160.001 43C241.71 43 295.605 75.0706 308.698 158.755C318.997 224.58 286.706 270 159.751 270Z" fill="#FF8400"/>
</g>
<path d="M3.50085 153.895C9.00085 155.395 20.8009 158.595 24.0009 159.395" stroke="black" stroke-width="7" stroke-linecap="round"/>
<path d="M24.0009 171.895L5.00085 176.986" stroke="black" stroke-width="7" stroke-linecap="round"/>
<path d="M317.501 154.395C312.001 155.895 300.201 159.095 297.001 159.895" stroke="black" stroke-width="7" stroke-linecap="round"/>
<path d="M297.001 172.395L316.001 177.486" stroke="black" stroke-width="7" stroke-linecap="round"/>
<path d="M157.269 158.395C158.039 159.728 159.963 159.728 160.733 158.395L166.795 147.895C167.565 146.562 166.603 144.895 165.063 144.895H152.939C151.399 144.895 150.437 146.562 151.207 147.895L157.269 158.395Z" fill="black"/>
<circle cx="45.5" cy="45.5" r="45.5" transform="matrix(-1 0 0 1 278.001 92.395)" fill="white"/>
<ellipse cx="232.501" cy="138.5" rx="35" ry="34.5" fill="black"/>
<circle cx="252.001" cy="122.5" r="9.5" fill="white"/>
<circle cx="82.5009" cy="137.895" r="45.5" fill="white"/>
<circle cx="82.1208" cy="138.62" r="34.6199" fill="black"/>
<circle cx="101.001" cy="122.5" r="9.5" fill="white"/>
<path d="M146.001 176.5C149.601 177.3 155.834 171.833 158.501 169C161.167 171.833 167.401 177.3 171.001 176.5C174.601 175.7 178.501 173.5 180.001 172.5C187.168 180 199.601 198.1 192.001 210.5C184.401 222.9 169.001 227.5 158.501 227.5C148.001 227.5 132.601 222.9 125.001 210.5C117.401 198.1 129.834 180 137.001 172.5C138.501 173.5 142.401 175.7 146.001 176.5Z" fill="#9F0000"/>
<defs>
<filter id="filter0_d_44_97" x="5.50085" y="43" width="308.982" height="235" filterUnits="userSpaceOnUse" color-interpolation-filters="sRGB">
<feFlood flood-opacity="0" result="BackgroundImageFix"/>
<feColorMatrix in="SourceAlpha" type="matrix" values="0 0 0 0 0 0 0 0 0 0 0 0 0 0 0 0 0 0 127 0" result="hardAlpha"/>
<feOffset dy="4"/>
<feGaussianBlur stdDeviation="2"/>
<feComposite in2="hardAlpha" operator="out"/>
<feColorMatrix type="matrix" values="0 0 0 0 0 0 0 0 0 0 0 0 0 0 0 0 0 0 0.25 0"/>
<feBlend mode="normal" in2="BackgroundImageFix" result="effect1_dropShadow_44_97"/>
<feBlend mode="normal" in="SourceGraphic" in2="effect1_dropShadow_44_97" result="shape"/>
</filter>
</defs>
</svg>
