<svg width="321" height="278" viewBox="0 0 321 278" fill="none" xmlns="http://www.w3.org/2000/svg">
<path d="M276.501 43.2901C284.901 66.4901 285.001 89.2901 284.001 97.7901L194.001 69.2901C196.334 58.4567 204.301 32.8901 217.501 17.2901C234.001 -2.20992 240.001 -0.209923 247.001 1.29008C254.001 2.79008 266.001 14.2901 276.501 43.2901Z" fill="#4177FF"/>
<path d="M40.0009 42.8951C31.6009 66.0951 31.5009 88.8951 32.5009 97.3951L122.501 68.8951C120.168 58.0617 112.201 32.4951 99.0008 16.8951C82.5008 -2.60494 76.5008 -0.604943 69.5008 0.895057C62.5008 2.39506 50.5009 13.8951 40.0009 42.8951Z" fill="#4177FF"/>
<g filter="url(#filter0_d_42_3)">
<path d="M159.751 270C32.7959 270 1.00442 224.58 11.3035 158.755C24.3969 75.0706 78.2916 43 160.001 43C241.71 43 295.605 75.0706 308.698 158.755C318.997 224.58 286.706 270 159.751 270Z" fill="url(#paint0_linear_42_3)"/>
</g>
<path d="M3.50088 153.895C9.00088 155.395 20.8009 158.595 24.0009 159.395" stroke="black" stroke-width="7" stroke-linecap="round"/>
<path d="M24.0009 171.895L5.00088 176.986" stroke="black" stroke-width="7" stroke-linecap="round"/>
<path d="M317.501 154.395C312.001 155.895 300.201 159.095 297.001 159.895" stroke="black" stroke-width="7" stroke-linecap="round"/>
<path d="M297.001 172.395L316.001 177.486" stroke="black" stroke-width="7" stroke-linecap="round"/>
<path d="M147.001 175.895L159.001 159.395L170.501 175.895" stroke="black" stroke-width="7" stroke-linecap="round"/>
<path d="M157.269 158.395C158.039 159.728 159.963 159.728 160.733 158.395L166.795 147.895C167.565 146.562 166.603 144.895 165.063 144.895H152.939C151.399 144.895 150.437 146.562 151.207 147.895L157.269 158.395Z" fill="black"/>
<circle cx="45.5" cy="45.5" r="45.5" transform="matrix(-1 0 0 1 278.001 92.395)" fill="white"/>
<ellipse cx="232.501" cy="138.5" rx="35" ry="34.5" fill="black"/>
<path d="M215.501 144.501C215.501 140.901 217.834 133.501 219.501 130.501C219.834 131.668 219.601 134.101 222.001 134.501C224.401 134.901 220.001 124.501 227.001 120.001C227.001 120.501 225.501 125.101 227.501 127.501C230.001 130.501 232.147 128.031 234.501 124.501C236.501 121.501 236.834 114.501 236.501 111.001C238.334 113.335 242.001 118.701 242.001 121.501C242.001 128.501 238.001 129.501 237.001 134.001C236.201 137.601 241.501 136.001 244.501 133.501L243.001 137.501C242.001 139.668 240.901 144.301 244.501 145.501C248.101 146.701 250.667 141.335 251.501 138.501C252.501 142.835 252.801 152.701 246.001 157.501C237.501 163.501 228.501 162.001 223.001 159.501C216.234 156.426 215.501 149.001 215.501 144.501Z" fill="#FF0000"/>
<path d="M225.001 150.001C224.501 146.501 225.001 141.001 230.001 136.501C229.001 139.501 228.388 142.97 229.001 144.501C230.001 147.001 232.667 144.835 234.001 144.001C234.001 145.501 233.401 148.601 235.001 149.001C236.601 149.401 238.334 147.168 239.001 146.001C239.501 146.668 240.201 148.701 239.001 151.501C237.501 155.001 234.001 156.001 232.001 156.001C230.001 156.001 225.672 154.697 225.001 150.001Z" fill="#FFD500"/>
<mask id="mask0_42_3" style="mask-type:alpha" maskUnits="userSpaceOnUse" x="185" y="92" width="83" height="62">
<path d="M186.605 153.478L267.105 107.001C266.105 104.835 261.805 99.4014 252.605 95.0014C241.105 89.5014 222.105 92.5014 210.105 96.5014C198.105 100.501 189.105 116.501 186.605 124.001C184.605 130.001 185.772 146.152 186.605 153.478Z" fill="#FF8400"/>
</mask>
<g mask="url(#mask0_42_3)">
<circle cx="45.5" cy="45.5" r="45.5" transform="matrix(-1 0 0 1 278.001 92.395)" fill="#FE2902"/>
</g>
<circle cx="82.5009" cy="137.895" r="45.5" fill="white"/>
<circle cx="82.1208" cy="138.62" r="34.6199" fill="black"/>
<mask id="mask1_42_3" style="mask-type:alpha" maskUnits="userSpaceOnUse" x="49" y="89" width="82" height="62">
<path d="M129.501 150.977L49.0009 104.5C50.0009 102.333 54.3009 96.9 63.5009 92.5C75.0009 87 94.0009 90 106.001 94C118.001 98 127.001 114 129.501 121.5C131.501 127.5 130.334 143.651 129.501 150.977Z" fill="#FF8400"/>
</mask>
<g mask="url(#mask1_42_3)">
<circle cx="82.5009" cy="137.895" r="45.5" fill="#FE2902"/>
</g>
<path d="M64.0009 142C64.0009 138.4 66.3342 131 68.0009 128C68.3342 129.167 68.1009 131.6 70.5009 132C72.9009 132.4 68.5009 122 75.5009 117.5C75.5009 118 74.0009 122.6 76.0009 125C78.5009 128 80.6475 125.53 83.0009 122C85.0009 119 85.3342 112 85.0009 108.5C86.8342 110.833 90.5009 116.2 90.5009 119C90.5009 126 86.5009 127 85.5009 131.5C84.7009 135.1 90.0009 133.5 93.0009 131L91.5009 135C90.5009 137.167 89.4009 141.8 93.0009 143C96.6009 144.2 99.1675 138.833 100.001 136C101.001 140.333 101.301 150.2 94.5009 155C86.0009 161 77.0009 159.5 71.5009 157C64.7341 153.924 64.0009 146.5 64.0009 142Z" fill="#FF0000"/>
<path d="M73.5009 147.5C73.0009 144 73.5009 138.5 78.5009 134C77.5009 137 76.8884 140.469 77.5009 142C78.5009 144.5 81.1676 142.333 82.5009 141.5C82.5009 143 81.9009 146.1 83.5009 146.5C85.1009 146.9 86.8342 144.667 87.5009 143.5C88.0009 144.167 88.7009 146.2 87.5009 149C86.0009 152.5 82.5009 153.5 80.5009 153.5C78.5009 153.5 74.1717 152.196 73.5009 147.5Z" fill="#FFD500"/>
<defs>
<filter id="filter0_d_42_3" x="5.50088" y="43" width="308.982" height="235" filterUnits="userSpaceOnUse" color-interpolation-filters="sRGB">
<feFlood flood-opacity="0" result="BackgroundImageFix"/>
<feColorMatrix in="SourceAlpha" type="matrix" values="0 0 0 0 0 0 0 0 0 0 0 0 0 0 0 0 0 0 127 0" result="hardAlpha"/>
<feOffset dy="4"/>
<feGaussianBlur stdDeviation="2"/>
<feComposite in2="hardAlpha" operator="out"/>
<feColorMatrix type="matrix" values="0 0 0 0 0 0 0 0 0 0 0 0 0 0 0 0 0 0 0.25 0"/>
<feBlend mode="normal" in2="BackgroundImageFix" result="effect1_dropShadow_42_3"/>
<feBlend mode="normal" in="SourceGraphic" in2="effect1_dropShadow_42_3" result="shape"/>
</filter>
<linearGradient id="paint0_linear_42_3" x1="159.992" y1="43" x2="159.992" y2="270" gradientUnits="userSpaceOnUse">
<stop stop-color="#FF0000"/>
<stop offset="0.26" stop-color="#FC6604"/>
</linearGradient>
</defs>
</svg>
